{
.appVersion = "3436";
.formatVersion = 3;
DisplayStrings = (
"kirtefestivalisfamousinindia/CR orangeisage lafette iei
ioangepeyq",
"nophijmlfuvwyrbqdtgacezxsk
abcdefghijklmnopqrstuvwxyz
iviviviwiwiwininijiji ninja hatori
fifty forty toffee referee fold free
reverted retrograde renegade trellis
idioliekiqixizi hans zimmer quizziz
babbler jiggle kejriwal joker"
);
axes = (
{
name = Weight;
tag = wght;
},
{
name = Width;
tag = wdth;
}
);
customParameters = (
{
name = glyphOrder;
value = (
.notdef,
n,
o,
p,
h,
i,
j,
m,
l,
f,
u,
v,
w,
y,
r,
b,
q,
d,
t,
g,
a,
c,
e,
z,
x,
s,
k,
CR
);
}
);
date = "2026-02-11 08:10:01 +0000";
familyName = BlackL_P;
fontMaster = (
{
axesValues = (
400,
50
);
customParameters = (
{
name = typoAscender;
value = 750;
},
{
name = typoDescender;
value = -250;
},
{
name = typoLineGap;
value = 100;
},
{
name = winAscent;
value = 750;
},
{
name = winDescent;
value = 250;
},
{
name = underlineThickness;
value = 50;
},
{
name = underlinePosition;
value = -100;
},
{
name = strikeoutPosition;
value = 300;
},
{
name = strikeoutSize;
value = 50;
},
{
name = subscriptXOffset;
value = 0;
},
{
name = subscriptXSize;
value = 650;
},
{
name = subscriptYOffset;
value = 75;
},
{
name = subscriptYSize;
value = 600;
},
{
name = superscriptXOffset;
value = 0;
},
{
name = superscriptXSize;
value = 650;
},
{
name = superscriptYOffset;
value = 350;
},
{
name = superscriptYSize;
value = 600;
},
{
name = hheaAscender;
value = 750;
},
{
name = hheaDescender;
value = -250;
},
{
name = hheaLineGap;
value = 100;
}
);
guides = (
{
pos = (0,250);
}
);
id = "4F3E9B02-E456-4626-B03D-CB5849416C61";
metricValues = (
{
pos = 750;
},
{
pos = 700;
},
{
pos = -250;
},
{
},
{
pos = 500;
}
);
name = Regular;
userData = {
de.kutilek.MasterGrid.type = units;
de.kutilek.MasterGrid.value = (
14,
14
);
};
},
{
axesValues = (
700,
50
);
customParameters = (
{
name = typoAscender;
value = 750;
},
{
name = typoDescender;
value = -250;
},
{
name = typoLineGap;
value = 100;
},
{

glyphs = (
{
glyphname = n;
lastChange = "2026-02-11 15:47:56 +0000";
layers = (
{
layerId = "BB1E0B62-8800-4897-8DA4-2FB7C2EA9BE3";
shapes = (
{
attr = {
strokeWidth = 150;
};
closed = 0;
nodes = (
(9,430,l),
(50,466,l),
(98,419,l),
(98,346,l),
(98,64,l),
(146,33,l),
(146,33,o),
(180,73,o),
(180,73,c)
);
},
{
attr = {
strokeWidth = 150;
};
closed = 0;
nodes = (
(420,385,l),
(420,64,l),
(468,33,l),
(502,73,l)
);
},
{
attr = {
strokeWidth = 150;
};
closed = 0;
nodes = (
(98,364,l),
(342,466,l),
(420,385,l),
(451,410,l)
);
},
{
attr = {
strokeWidth = 150;
};
closed = 0;
nodes = (
(72,80,l),
(107,58,l)
);
},
{
attr = {
strokeWidth = 150;
};
closed = 0;
nodes = (
(394,80,l),
(429,58,l)
);
}
);
width = 406;
},
{
guides = (
{
angle = 90;
pos = (-141,0);
}
);
layerId = "ABEE408E-F1F2-48F1-B0CF-1BE6048DE736";
shapes = (
{
attr = {
strokeWidth = 56;
};
closed = 0;
nodes = (
(9,430,l),
(50,466,l),
(98,419,l),
(98,346,l),
(98,64,l),
(146,33,l),
(146,33,o),
(180,73,o),
(180,73,c)
);
},
{
attr = {
strokeWidth = 56;
};
closed = 0;
nodes = (
(420,385,l),
(420,64,l),
(468,33,l),
(502,73,l)
);
},
{
attr = {
strokeWidth = 56;
};
closed = 0;
nodes = (
(98,364,l),
(342,466,l),
(420,385,l),
(451,410,l)
);
},
{
attr = {
strokeWidth = 56;
};
closed = 0;
nodes = (
(72,80,l),
(107,58,l)
);
},
{
attr = {
strokeWidth = 56;
};
closed = 0;
nodes = (
(394,80,l),
(429,58,l)
);
}
);
width = 503;
},
{
layerId = "45694E59-AA00-4651-8C52-E54C12FC4B80";
shapes = (
{
attr = {
strokeWidth = 150;
};
closed = 0;
nodes = (
(9,430,l),
(50,466,l),
(98,419,l),
(98,346,l),
(98,64,l),
(146,33,l),
(146,33,o),
(180,73,o),
(180,73,c)
);
},
{
attr = {
strokeWidth = 150;
};
closed = 0;
nodes = (
(322,385,l),
(322,64,l),
(370,33,l),
(404,73,l)
);
},
{
attr = {
strokeWidth = 150;
};
closed = 0;
nodes = (
(98,364,l),
(244,466,l),
(322,385,l),
(353,410,l)
);
},
{
attr = {
strokeWidth = 150;
};
closed = 0;
nodes = (
(72,80,l),
(107,58,l)
);
},
{
attr = {
strokeWidth = 150;
};
closed = 0;
nodes = (
(296,80,l),
(331,58,l)
);
}
);
width = 406;
},
{
associatedMasterId = "4F3E9B02-E456-4626-B03D-CB5849416C61";
guides = (
{
angle = 90;
pos = (-141,0);
}
);
layerId = "EECAD427-8281-4F1F-9520-48C139F87A09";
name = "11 Feb 26 at 13:40";
shapes = (
{
closed = 1;
nodes = (
(380,364,l),
(344,406,l),
(410,462,l),
(446,420,l)
);
},
{
closed = 1;
nodes = (
(46,390,l),
(11,433,l),
(86,499,l),
(168,419,l),
(168,70,l),
(112,80,l),
(112,395,l),
(86,421,l)
);
},
{
closed = 1;
nodes = (
(121,359,l),
(296,500,l),
(391,394,l),
(391,72,l),
(335,72,l),
(335,372,l),
(292,420,l),
(159,317,l)
);
},
{
closed = 1;
nodes = (
(324,76,l),
(359,124,l),
(419,73,l),
(450,105,l),
(490,67,l),
(425,-1,l)
);
},
{
closed = 1;
nodes = (
(96,76,l),
(131,124,l),
(191,73,l),
(222,105,l),
(262,67,l),
(197,-1,l)
);
}
);
width = 503;
},
{
associatedMasterId = "4F3E9B02-E456-4626-B03D-CB5849416C61";
layerId = "64854361-A15A-47EC-BAB8-35E649E3B24A";
name = "11 Feb 26 at 13:56";
shapes = (
{
attr = {
strokeWidth = 56;
};
closed = 0;
nodes = (
(9,440,l),
(40,466,l),
(98,409,l),
(98,346,l),
(98,64,l),
(146,33,l),
(146,33,o),
(180,73,o),
(180,73,c)
);
},
{
attr = {
strokeWidth = 56;
};
closed = 0;
nodes = (
(322,385,l),
(322,64,l),
(370,33,l),
(404,73,l)
);
},
{
attr = {
strokeWidth = 56;
};
closed = 0;
nodes = (
(98,364,l),
(244,466,l),
(322,385,l),
(353,410,l)
);
},
{
attr = {
strokeWidth = 56;
};
closed = 0;
nodes = (
(72,80,l),
(107,58,l)
);
},
{
attr = {
strokeWidth = 56;
};
closed = 0;
nodes = (
(296,80,l),
(331,58,l)
);
}
);
width = 420;
},
{
associatedMasterId = "4F3E9B02-E456-4626-B03D-CB5849416C61";
layerId = "262D78FA-8EB6-4675-AEE3-4A9FDEF9035B";
name = "11 Feb 26 at 19:44";
shapes = (
{
attr = {
strokeWidth = 56;
};
closed = 0;
nodes = (
(9,370,l),
(40,406,l),
(98,359,l),
(98,286,l),
(98,64,l),
(146,33,l),
(146,33,o),
(180,73,o),
(180,73,c)
);
},
{
attr = {
strokeWidth = 56;
};
closed = 0;
nodes = (
(322,325,l),
(322,64,l),
(370,33,l),
(404,73,l)
);
},
{
attr = {
strokeWidth = 56;
};
closed = 0;
nodes = (
(98,304,l),
(244,406,l),
(322,325,l),
(364,360,l)
);
},
{
attr = {
strokeWidth = 56;
};
closed = 0;
nodes = (
(72,80,l),
(107,58,l)
);
},
{
attr = {
strokeWidth = 56;
};
closed = 0;
nodes = (
(296,80,l),
(331,58,l)
);
},
{
attr = {
strokeHeight = 40;
strokeWidth = 50;
};
closed = 0;
nodes = (
(-299,382,l),
(-241,332,l),
(-241,101,l),
(-183,51,l)
);
},
{
attr = {
strokeHeight = 40;
strokeWidth = 50;
};
closed = 0;
nodes = (
(-133,382,l),
(-71,332,l),
(-71,101,l),
(-13,51,l)
);
},
{
attr = {
strokeHeight = 40;
strokeWidth = 50;
};
closed = 0;
nodes = (
(-232,331,l),
(-141,376,l)
);
},
{
attr = {
strokeHeight = 40;
strokeWidth = 50;
};
closed = 0;
nodes = (
(-65,336,l),
(-46,347,l)
);
},
{
attr = {
strokeHeight = 40;
strokeWidth = 50;
};
closed = 0;
nodes = (
(-332,360,l),
(-306,375,l)
);
},
{
attr = {
strokeHeight = 40;
strokeWidth = 50;
};
closed = 0;
nodes = (
(-9,55,l),
(10,66,l)
);
},
{
attr = {
strokeHeight = 40;
strokeWidth = 50;
};
closed = 0;
nodes = (
(-177,54,l),
(-158,65,l)
);
},
{
attr = {
strokeHeight = 40;
strokeWidth = 50;
};
closed = 0;
nodes = (
(-266,85,l),
(-247,96,l)
);
},
{
attr = {
strokeHeight = 40;
strokeWidth = 50;
};
closed = 0;
nodes = (
(-95,87,l),
(-76,98,l)
);
}
);
width = 420;
},
{
associatedMasterId = "4F3E9B02-E456-4626-B03D-CB5849416C61";
layerId = "B2628E00-3A08-4DCA-A292-3061B9CAAC0F";
name = "11 Feb 26 at 21:17";
shapes = (
{
attr = {
strokeWidth = 56;
};
closed = 0;
nodes = (
(9,430,l),
(50,466,l),
(98,419,l),
(98,346,l),
(98,64,l),
(146,33,l),
(146,33,o),
(180,73,o),
(180,73,c)
);
},
{
attr = {
strokeWidth = 56;
};
closed = 0;
nodes = (
(322,385,l),
(322,64,l),
(370,33,l),
(404,73,l)
);
},
{
attr = {
strokeWidth = 56;
};
closed = 0;
nodes = (
(98,364,l),
(244,466,l),
(322,385,l),
(363,420,l)
);
},
{
attr = {
strokeWidth = 56;
};
closed = 0;
nodes = (
(72,80,l),
(107,58,l)
);
},
{
attr = {
strokeWidth = 56;
};
closed = 0;
nodes = (
(296,80,l),
(331,58,l)
);
}
);
width = 420;
},
{
layerId = "4F3E9B02-E456-4626-B03D-CB5849416C61";
name = Regular;
shapes = (
{
attr = {
strokeWidth = 56;
};
closed = 0;
nodes = (
(23,430,l),
(64,466,l),
(112,419,l),
(112,346,l),
(112,64,l),
(160,33,l),
(160,33,o),
(194,73,o),
(194,73,c)
);
},
{
attr = {
strokeWidth = 56;
};
closed = 0;
nodes = (
(336,385,l),
(336,64,l),
(384,33,l),
(418,73,l)
);
},
{
attr = {
strokeWidth = 56;
};
closed = 0;
nodes = (
(112,364,l),
(258,466,l),
(336,385,l),
(377,420,l)
);
},
{
attr = {
strokeWidth = 56;
};
closed = 0;
nodes = (
(86,80,l),
(121,58,l)
);
},
{
attr = {
strokeWidth = 56;
};
closed = 0;
nodes = (
(310,80,l),
(345,58,l)
);
}
);
width = 448;
}
);
unicode = 110;
},
{
glyphname = o;
lastChange = "2026-02-11 19:12:17 +0000";
layers = (
{
layerId = "BB1E0B62-8800-4897-8DA4-2FB7C2EA9BE3";
shapes = (
{
attr = {
strokeWidth = 56;
};
closed = 0;
nodes = (
(94,82,l),
(227,29,l),
(318,107,l),
(318,406,l),
(196,472,l),
(94,391,l),
(94,82,l),
(58,52,l)
);
},
{
attr = {
strokeWidth = 56;
};
closed = 0;
nodes = (
(318,406,l),
(349,431,l)
);
}
);
width = 407;
},
{
guides = (
{
pos = (0,500);
},
{
}
);
layerId = "ABEE408E-F1F2-48F1-B0CF-1BE6048DE736";
shapes = (
{
closed = 1;
nodes = (
(68,20,l),
(26,56,l),
(56,91,l),
(56,408,l),
(181,502,l),
(301,442,l),
(329,473,l),
(371,435,l),
(313,372,l),
(187,436,l),
(112,380,l),
(112,71,l)
);
},
{
closed = 1;
nodes = (
(73,61,l),
(95,113,l),
(205,64,l),
(279,118,l),
(279,407,l),
(335,407,l),
(335,90,l),
(211,0,l)
);
}
);
width = 397;
},
{
layerId = "45694E59-AA00-4651-8C52-E54C12FC4B80";
shapes = (
{
attr = {
strokeWidth = 56;
};
closed = 0;
nodes = (
(94,82,l),
(227,29,l),
(318,107,l),
(318,406,l),
(196,472,l),
(94,391,l),
(94,82,l),
(58,52,l)
);
},
{
attr = {
strokeWidth = 56;
};
closed = 0;
nodes = (
(318,406,l),
(349,431,l)
);
}
);
width = 407;
},
{
associatedMasterId = "4F3E9B02-E456-4626-B03D-CB5849416C61";
guides = (
{
pos = (0,500);
},
{
}
);
layerId = "8F63A828-162C-43E7-8F44-44641CA3F293";
name = "11 Feb 26 at 13:53";
shapes = (
{
closed = 1;
nodes = (
(78,30,l),
(36,66,l),
(56,91,l),
(56,408,l),
(181,502,l),
(301,442,l),
(316,458,l),
(358,420,l),
(313,372,l),
(187,436,l),
(112,380,l),
(112,71,l)
);
},
{
closed = 1;
nodes = (
(73,61,l),
(95,113,l),
(205,64,l),
(279,118,l),
(279,407,l),
(335,407,l),
(335,90,l),
(211,0,l)
);
}
);
width = 392;
},
{
layerId = "4F3E9B02-E456-4626-B03D-CB5849416C61";
name = Regular;
shapes = (
{
attr = {
strokeWidth = 56;
};
closed = 0;
nodes = (
(98,82,l),
(211,29,l),
(322,107,l),
(322,406,l),
(220,472,l),
(98,391,l),
(98,82,l),
(62,52,l)
);
},
{
attr = {
strokeWidth = 56;
};
closed = 0;
nodes = (
(322,406,l),
(363,441,l)
);
}
);
width = 420;
},
{
associatedMasterId = "4F3E9B02-E456-4626-B03D-CB5849416C61";
layerId = "65D9E833-75B2-4960-8E76-23B2E4C7604E";
name = "11 Feb 26 at 20:03";
shapes = (
{
attr = {
strokeWidth = 56;
};
closed = 0;
nodes = (
(98,82,l),
(231,29,l),
(322,107,l),
(322,406,l),
(200,472,l),
(98,391,l),
(98,82,l),
(62,52,l)
);
},
{
attr = {
strokeWidth = 56;
};
closed = 0;
nodes = (
(322,406,l),
(363,441,l)
);
},
{
attr = {
strokeWidth = 56;
};
closed = 0;
nodes = (
(350,131,l),
(314,101,l)
);
},
{
attr = {
strokeWidth = 56;
};
closed = 0;
nodes = (
(106,397,l),
(70,368,l)
);
}
);
width = 420;
},
{
associatedMasterId = "4F3E9B02-E456-4626-B03D-CB5849416C61";
layerId = "3A0E18A8-2CFB-4477-9502-437FA71EA020";
name = "11 Feb 26 at 20:04";
shapes = (
{
attr = {
strokeWidth = 56;
};
closed = 0;
nodes = (
(98,82,l),
(231,29,l),
(322,107,l),
(322,406,l),
(200,472,l),
(98,391,l),
(98,82,l),
(62,52,l)
);
},
{
attr = {
strokeWidth = 56;
};
closed = 0;
nodes = (
(322,406,l),
(363,441,l)
);
},
{
attr = {
strokeWidth = 56;
};
closed = 0;
nodes = (
(322,70,l),
(322,101,l)
);
},
{
attr = {
strokeWidth = 56;
};
closed = 0;
nodes = (
(98,397,l),
(98,436,l)
);
}
);
width = 420;
}
);
unicode = 111;
},
{
glyphname = p;
lastChange = "2026-02-11 19:32:03 +0000";
layers = (
{
layerId = "BB1E0B62-8800-4897-8DA4-2FB7C2EA9BE3";
shapes = (
{
attr = {
strokeWidth = 56;
};
closed = 0;
nodes = (
(9,430,l),
(50,466,l),
(98,419,l),
(98,346,l),
(98,64,l)
);
},
{
attr = {
strokeWidth = 56;
};
closed = 0;
nodes = (
(322,385,l),
(322,85,l)
);
},
{
attr = {
strokeWidth = 56;
};
closed = 0;
nodes = (
(98,364,l),
(244,466,l),
(322,385,l),
(353,410,l)
);
},
{
attr = {
strokeWidth = 56;
};
closed = 0;
nodes = (
(59,99,l),
(241,29,l),
(332,107,l)
);
},
{
attr = {
strokeWidth = 56;
};
closed = 0;
nodes = (
(286,-114,l),
(98,-24,l),
(98,64,l)
);
}
);
width = 401;
},
{
layerId = "ABEE408E-F1F2-48F1-B0CF-1BE6048DE736";
shapes = (
{
closed = 1;
nodes = (
(263,-125,l),
(112,-47,l),
(112,119,l),
(168,119,l),
(168,-15,l),
(301,-81,l)
);
},
{
closed = 1;
nodes = (
(53,391,l),
(15,431,l),
(86,499,l),
(168,419,l),
(168,70,l),
(112,80,l),
(112,395,l),
(86,421,l)
);
},
{
closed = 1;
nodes = (
(112,365,l),
(297,500,l),
(392,394,l),
(392,99,l),
(336,99,l),
(336,372,l),
(293,420,l),
(147,317,l)
);
},
{
closed = 1;
nodes = (
(378,364,l),
(342,406,l),
(408,462,l),
(444,420,l)
);
},
{
closed = 1;
nodes = (
(392,99,l),
(268,0,l),
(82,91,l),
(107,143,l),
(263,65,l),
(350,136,l)
);
}
);
width = 537;
},
{
layerId = "45694E59-AA00-4651-8C52-E54C12FC4B80";
shapes = (
{
attr = {
strokeWidth = 56;
};
closed = 0;
nodes = (
(9,430,l),
(50,466,l),
(98,419,l),
(98,346,l),
(98,64,l)
);
},
{
attr = {
strokeWidth = 56;
};
closed = 0;
nodes = (
(322,385,l),
(322,85,l)
);
},
{
attr = {
strokeWidth = 56;
};
closed = 0;
nodes = (
(98,364,l),
(244,466,l),
(322,385,l),
(353,410,l)
);
},
{
attr = {
strokeWidth = 56;
};
closed = 0;
nodes = (
(59,99,l),
(241,29,l),
(332,107,l)
);
},
{
attr = {
strokeWidth = 56;
};
closed = 0;
nodes = (
(286,-114,l),
(98,-24,l),
(98,64,l)
);
}
);
width = 401;
},
{
associatedMasterId = "4F3E9B02-E456-4626-B03D-CB5849416C61";
layerId = "685E9422-8870-4892-A1DE-ED773E5A3D5D";
name = "11 Feb 26 at 13:49";
shapes = (
{
closed = 1;
nodes = (
(263,-125,l),
(112,-47,l),
(112,119,l),
(168,119,l),
(168,-15,l),
(301,-81,l)
);
},
{
closed = 1;
nodes = (
(53,391,l),
(15,431,l),
(86,499,l),
(168,419,l),
(168,70,l),
(112,80,l),
(112,395,l),
(86,421,l)
);
},
{
closed = 1;
nodes = (
(112,365,l),
(297,500,l),
(392,394,l),
(392,99,l),
(336,99,l),
(336,372,l),
(293,420,l),
(147,317,l)
);
},
{
closed = 1;
nodes = (
(378,364,l),
(342,406,l),
(408,462,l),
(444,420,l)
);
},
{
closed = 1;
nodes = (
(392,99,l),
(268,0,l),
(82,91,l),
(107,143,l),
(263,65,l),
(350,136,l)
);
}
);
width = 537;
},
{
layerId = "4F3E9B02-E456-4626-B03D-CB5849416C61";
name = Regular;
shapes = (
{
attr = {
strokeWidth = 56;
};
closed = 0;
nodes = (
(23,430,l),
(64,466,l),
(112,419,l),
(112,346,l),
(112,64,l)
);
},
{
attr = {
strokeWidth = 56;
};
closed = 0;
nodes = (
(336,385,l),
(336,95,l)
);
},
{
attr = {
strokeWidth = 56;
};
closed = 0;
nodes = (
(112,364,l),
(258,466,l),
(336,385,l),
(378,420,l)
);
},
{
attr = {
strokeWidth = 56;
};
closed = 0;
nodes = (
(73,99,l),
(225,29,l),
(346,117,l)
);
},
{
attr = {
strokeWidth = 56;
};
closed = 0;
nodes = (
(112,-74,l),
(112,64,l)
);
},
{
attr = {
strokeWidth = 56;
};
closed = 0;
nodes = (
(112,247,l),
(112,-74,l),
(170,-105,l),
(204,-65,l)
);
},
{
attr = {
strokeWidth = 56;
};
closed = 0;
nodes = (
(75,-56,l),
(121,-79,l)
);
}
);
width = 434;
},
{
associatedMasterId = "4F3E9B02-E456-4626-B03D-CB5849416C61";
layerId = "B0F6660E-A3AD-4F5E-9711-F5A655603D18";
name = "11 Feb 26 at 19:58";
shapes = (
{
attr = {
strokeWidth = 56;
};
closed = 0;
nodes = (
(9,430,l),
(50,466,l),
(98,419,l),
(98,346,l),
(98,64,l)
);
},
{
attr = {
strokeWidth = 56;
};
closed = 0;
nodes = (
(322,385,l),
(322,85,l)
);
},
{
attr = {
strokeWidth = 56;
};
closed = 0;
nodes = (
(98,364,l),
(244,466,l),
(322,385,l),
(353,410,l)
);
},
{
attr = {
strokeWidth = 56;
};
closed = 0;
nodes = (
(59,99,l),
(241,29,l),
(332,107,l)
);
},
{
attr = {
strokeWidth = 56;
};
closed = 0;
nodes = (
(286,-114,l),
(98,-24,l),
(98,64,l)
);
}
);
width = 401;
},
{
associatedMasterId = "4F3E9B02-E456-4626-B03D-CB5849416C61";
layerId = "C4012A55-48E4-4626-BC4B-2C8B7B7CF23B";
name = "11 Feb 26 at 20:00";
shapes = (
{
attr = {
strokeWidth = 56;
};
closed = 0;
nodes = (
(9,430,l),
(50,466,l),
(98,419,l),
(98,346,l),
(98,64,l)
);
},
{
attr = {
strokeWidth = 56;
};
closed = 0;
nodes = (
(322,385,l),
(322,85,l)
);
},
{
attr = {
strokeWidth = 56;
};
closed = 0;
nodes = (
(98,364,l),
(244,466,l),
(322,385,l),
(353,410,l)
);
},
{
attr = {
strokeWidth = 56;
};
closed = 0;
nodes = (
(59,99,l),
(241,29,l),
(332,107,l)
);
},
{
attr = {
strokeWidth = 56;
};
closed = 0;
nodes = (
(176,-111,l),
(98,-74,l),
(98,64,l)
);
}
);
width = 406;
}
);
unicode = 112;
},
{
glyphname = h;
lastChange = "2026-02-11 19:30:53 +0000";
layers = (
{
layerId = "BB1E0B62-8800-4897-8DA4-2FB7C2EA9BE3";
shapes = (
{
attr = {
strokeWidth = 56;
};
closed = 0;
nodes = (
(9,629,l),
(50,665,l),
(98,618,l),
(98,346,l),
(98,64,l),
(146,33,l),
(146,33,o),
(180,73,o),
(180,73,c)
);
},
{
attr = {
strokeWidth = 56;
};
closed = 0;
nodes = (
(322,385,l),
(322,64,l),
(370,33,l),
(404,73,l)
);
},
{
attr = {
strokeWidth = 56;
};
closed = 0;
nodes = (
(98,364,l),
(244,466,l),
(322,385,l),
(353,410,l)
);
},
{
attr = {
strokeWidth = 56;
};
closed = 0;
nodes = (
(72,80,l),
(107,58,l)
);
},
{
attr = {
strokeWidth = 56;
};
closed = 0;
nodes = (
(296,80,l),
(331,58,l)
);
}
);
width = 406;
},
{
layerId = "ABEE408E-F1F2-48F1-B0CF-1BE6048DE736";
shapes = (
{
closed = 1;
nodes = (
(40,591,l),
(2,631,l),
(73,699,l),
(155,619,l),
(155,70,l),
(99,80,l),
(99,595,l),
(73,621,l)
);
},
{
closed = 1;
nodes = (
(83,76,l),
(118,124,l),
(178,73,l),
(209,105,l),
(249,67,l),
(184,-1,l)
);
},
{
closed = 1;
nodes = (
(109,359,l),
(284,500,l),
(379,394,l),
(379,71,l),
(323,71,l),
(323,372,l),
(280,420,l),
(147,317,l)
);
},
{
closed = 1;
nodes = (
(312,75,l),
(347,123,l),
(407,72,l),
(438,104,l),
(478,66,l),
(413,-2,l)
);
},
{
closed = 1;
nodes = (
(365,364,l),
(329,406,l),
(395,462,l),
(431,420,l)
);
}
);
width = 477;
},
{
layerId = "45694E59-AA00-4651-8C52-E54C12FC4B80";
shapes = (
{
attr = {
strokeWidth = 56;
};
closed = 0;
nodes = (
(9,629,l),
(50,665,l),
(98,618,l),
(98,346,l),
(98,64,l),
(146,33,l),
(146,33,o),
(180,73,o),
(180,73,c)
);
},
{
attr = {
strokeWidth = 56;
};
closed = 0;
nodes = (
(322,385,l),
(322,64,l),
(370,33,l),
(404,73,l)
);
},
{
attr = {
strokeWidth = 56;
};
closed = 0;
nodes = (
(98,364,l),
(244,466,l),
(322,385,l),
(353,410,l)
);
},
{
attr = {
strokeWidth = 56;
};
closed = 0;
nodes = (
(72,80,l),
(107,58,l)
);
},
{
attr = {
strokeWidth = 56;
};
closed = 0;
nodes = (
(296,80,l),
(331,58,l)
);
}
);
width = 406;
},
{
associatedMasterId = "4F3E9B02-E456-4626-B03D-CB5849416C61";
layerId = "1ED8E582-01E2-41CB-9FBC-031D9753CA50";
name = "11 Feb 26 at 19:52";
shapes = (
{
closed = 1;
nodes = (
(40,591,l),
(2,631,l),
(73,699,l),
(155,619,l),
(155,70,l),
(99,80,l),
(99,595,l),
(73,621,l)
);
},
{
closed = 1;
nodes = (
(83,76,l),
(118,124,l),
(178,73,l),
(209,105,l),
(249,67,l),
(184,-1,l)
);
},
{
closed = 1;
nodes = (
(109,359,l),
(284,500,l),
(379,394,l),
(379,71,l),
(323,71,l),
(323,372,l),
(280,420,l),
(147,317,l)
);
},
{
closed = 1;
nodes = (
(312,75,l),
(347,123,l),
(407,72,l),
(438,104,l),
(478,66,l),
(413,-2,l)
);
},
{
closed = 1;
nodes = (
(365,364,l),
(329,406,l),
(395,462,l),
(431,420,l)
);
}
);
width = 477;
},
{
layerId = "4F3E9B02-E456-4626-B03D-CB5849416C61";
name = Regular;
shapes = (
{
attr = {
strokeWidth = 56;
};
closed = 0;
nodes = (
(23,619,l),
(64,655,l),
(112,618,l),
(112,346,l),
(112,64,l),
(160,33,l),
(160,33,o),
(194,73,o),
(194,73,c)
);
},
{
attr = {
strokeWidth = 56;
};
closed = 0;
nodes = (
(336,385,l),
(336,64,l),
(384,33,l),
(418,73,l)
);
},
{
attr = {
strokeWidth = 56;
};
closed = 0;
nodes = (
(112,364,l),
(258,466,l),
(336,385,l),
(367,410,l)
);
},
{
attr = {
strokeWidth = 56;
};
closed = 0;
nodes = (
(86,80,l),
(121,58,l)
);
},
{
attr = {
strokeWidth = 56;
};
closed = 0;
nodes = (
(310,80,l),
(345,58,l)
);
}
);
width = 448;
}
);
unicode = 104;
},
{
glyphname = i;
lastChange = "2026-02-11 20:02:21 +0000";
layers = (
{
layerId = "BB1E0B62-8800-4897-8DA4-2FB7C2EA9BE3";
shapes = (
{
attr = {
strokeWidth = 56;
};
closed = 0;
nodes = (
(9,430,l),
(50,466,l),
(98,419,l),
(98,346,l),
(98,64,l),
(146,33,l),
(158,46,o),
(168,60,o),
(180,73,c)
);
},
{
attr = {
strokeWidth = 56;
};
closed = 0;
nodes = (
(72,80,l),
(107,58,l)
);
},
{
attr = {
strokeWidth = 56;
};
closed = 0;
nodes = (
(96,530,l),
(146,578,l)
);
},
{
attr = {
strokeWidth = 56;
};
closed = 0;
nodes = (
(107,410,l),
(138,439,l)
);
}
);
width = 181;
},
{
layerId = "ABEE408E-F1F2-48F1-B0CF-1BE6048DE736";
shapes = (
{
attr = {
strokeWidth = 56;
};
closed = 0;
nodes = (
(9,430,l),
(50,466,l),
(98,419,l),
(98,346,l),
(98,64,l),
(146,33,l),
(158,46,o),
(168,60,o),
(180,73,c)
);
},
{
attr = {
strokeWidth = 56;
};
closed = 0;
nodes = (
(72,80,l),
(107,58,l)
);
},
{
attr = {
strokeWidth = 56;
};
closed = 0;
nodes = (
(96,530,l),
(146,578,l)
);
},
{
attr = {
strokeWidth = 56;
};
closed = 0;
nodes = (
(107,410,l),
(138,439,l)
);
}
);
width = 252;
},
{
layerId = "45694E59-AA00-4651-8C52-E54C12FC4B80";
shapes = (
{
attr = {
strokeWidth = 56;
};
closed = 0;
nodes = (
(9,430,l),
(50,466,l),
(98,419,l),
(98,346,l),
(98,64,l),
(146,33,l),
(158,46,o),
(168,60,o),
(180,73,c)
);
},
{
attr = {
strokeWidth = 56;
};
closed = 0;
nodes = (
(72,80,l),
(107,58,l)
);
},
{
attr = {
strokeWidth = 56;
};
closed = 0;
nodes = (
(96,530,l),
(146,578,l)
);
},
{
attr = {
strokeWidth = 56;
};
closed = 0;
nodes = (
(107,410,l),
(138,439,l)
);
}
);
width = 181;
},
{
associatedMasterId = "4F3E9B02-E456-4626-B03D-CB5849416C61";
layerId = "47C0815B-C18F-423B-A7E2-565580DBADCC";
name = "11 Feb 26 at 13:45";
shapes = (
{
closed = 1;
nodes = (
(39,391,l),
(1,431,l),
(72,499,l),
(154,419,l),
(154,70,l),
(98,80,l),
(98,395,l),
(72,421,l)
);
},
{
closed = 1;
nodes = (
(82,76,l),
(117,124,l),
(177,73,l),
(208,105,l),
(248,67,l),
(183,-1,l)
);
},
{
closed = 1;
nodes = (
(141,364,l),
(105,406,l),
(175,466,l),
(211,424,l)
);
},
{
closed = 1;
nodes = (
(125,520,l),
(89,562,l),
(144,608,l),
(180,566,l)
);
}
);
width = 252;
},
{
layerId = "4F3E9B02-E456-4626-B03D-CB5849416C61";
name = Regular;
shapes = (
{
attr = {
strokeWidth = 56;
};
closed = 0;
nodes = (
(23,430,l),
(64,466,l),
(112,419,l),
(112,346,l),
(112,64,l),
(160,33,l),
(172,46,o),
(182,60,o),
(194,73,c)
);
},
{
attr = {
strokeWidth = 56;
};
closed = 0;
nodes = (
(86,80,l),
(121,58,l)
);
},
{
attr = {
strokeWidth = 76;
};
closed = 0;
nodes = (
(100,570,l),
(150,618,l)
);
},
{
attr = {
strokeWidth = 56;
};
closed = 0;
nodes = (
(121,410,l),
(152,439,l)
);
}
);
width = 224;
},
{
associatedMasterId = "4F3E9B02-E456-4626-B03D-CB5849416C61";
layerId = "BBAEADFB-1E71-41DE-99FD-9BF08F26363B";
name = "11 Feb 26 at 21:16";
shapes = (
{
attr = {
strokeWidth = 56;
};
closed = 0;
nodes = (
(9,430,l),
(50,466,l),
(98,419,l),
(98,346,l),
(98,64,l),
(146,33,l),
(158,46,o),
(168,60,o),
(180,73,c)
);
},
{
attr = {
strokeWidth = 56;
};
closed = 0;
nodes = (
(72,80,l),
(107,58,l)
);
},
{
attr = {
strokeWidth = 56;
};
closed = 0;
nodes = (
(96,530,l),
(146,578,l)
);
},
{
attr = {
strokeWidth = 56;
};
closed = 0;
nodes = (
(107,410,l),
(138,439,l)
);
}
);
width = 196;
}
);
unicode = 105;
},
{
glyphname = j;
lastChange = "2026-02-11 20:02:10 +0000";
layers = (
{
guides = (
{
pos = (0,-71);
},
{
pos = (0,-141);
}
);
layerId = "BB1E0B62-8800-4897-8DA4-2FB7C2EA9BE3";
shapes = (
{
attr = {
strokeWidth = 56;
};
closed = 0;
nodes = (
(14,430,l),
(55,466,l),
(103,419,l),
(103,346,l),
(103,64,l),
(103,12,l),
(14,-118,l)
);
},
{
attr = {
strokeWidth = 56;
};
closed = 0;
nodes = (
(101,530,l),
(151,578,l)
);
},
{
attr = {
strokeWidth = 56;
};
closed = 0;
nodes = (
(112,410,l),
(143,439,l)
);
}
);
width = 191;
},
{
layerId = "ABEE408E-F1F2-48F1-B0CF-1BE6048DE736";
shapes = (
{
attr = {
strokeWidth = 56;
};
closed = 1;
nodes = (
(40,391,l),
(2,431,l),
(73,499,l),
(155,419,l),
(155,70,l),
(99,80,l),
(99,395,l),
(73,421,l)
);
},
{
attr = {
strokeWidth = 56;
};
closed = 1;
nodes = (
(126,520,l),
(90,562,l),
(145,608,l),
(181,566,l)
);
},
{
attr = {
strokeWidth = 56;
};
closed = 1;
nodes = (
(142,364,l),
(106,406,l),
(176,466,l),
(212,424,l)
);
},
{
closed = 1;
nodes = (
(46,-125,l),
(2,-91,l),
(99,23,l),
(99,119,l),
(155,119,l),
(155,3,l)
);
}
);
width = 218;
},
{
guides = (
{
pos = (0,-71);
},
{
pos = (0,-141);
}
);
layerId = "45694E59-AA00-4651-8C52-E54C12FC4B80";
shapes = (
{
attr = {
strokeWidth = 56;
};
closed = 0;
nodes = (
(14,430,l),
(55,466,l),
(103,419,l),
(103,346,l),
(103,64,l),
(103,12,l),
(14,-118,l)
);
},
{
attr = {
strokeWidth = 56;
};
closed = 0;
nodes = (
(101,530,l),
(151,578,l)
);
},
{
attr = {
strokeWidth = 56;
};
closed = 0;
nodes = (
(112,410,l),
(143,439,l)
);
}
);
width = 191;
},
{
associatedMasterId = "4F3E9B02-E456-4626-B03D-CB5849416C61";
layerId = "EE2E1548-74DC-4390-916E-EF40030534F3";
name = "11 Feb 26 at 22:59";
shapes = (
{
attr = {
strokeWidth = 56;
};
closed = 1;
nodes = (
(40,391,l),
(2,431,l),
(73,499,l),
(155,419,l),
(155,70,l),
(99,80,l),
(99,395,l),
(73,421,l)
);
},
{
attr = {
strokeWidth = 56;
};
closed = 1;
nodes = (
(126,520,l),
(90,562,l),
(145,608,l),
(181,566,l)
);
},
{
attr = {
strokeWidth = 56;
};
closed = 1;
nodes = (
(142,364,l),
(106,406,l),
(176,466,l),
(212,424,l)
);
},
{
closed = 1;
nodes = (
(46,-125,l),
(2,-91,l),
(99,23,l),
(99,119,l),
(155,119,l),
(155,3,l)
);
}
);
width = 218;
},
{
guides = (
{
pos = (14,-71);
},
{
pos = (14,-141);
}
);
layerId = "4F3E9B02-E456-4626-B03D-CB5849416C61";
name = Regular;
shapes = (
{
attr = {
strokeWidth = 56;
};
closed = 0;
nodes = (
(23,430,l),
(64,466,l),
(112,419,l),
(112,346,l),
(112,44,l),
(112,-8,l),
(27,-103,l)
);
},
{
attr = {
strokeWidth = 56;
};
closed = 0;
nodes = (
(121,410,l),
(152,439,l)
);
},
{
attr = {
strokeWidth = 56;
};
closed = 0;
nodes = (
(121,2,l),
(152,31,l)
);
},
{
attr = {
strokeWidth = 76;
};
closed = 0;
nodes = (
(100,570,l),
(150,618,l)
);
}
);
width = 224;
},
{
associatedMasterId = "4F3E9B02-E456-4626-B03D-CB5849416C61";
guides = (
{
pos = (14,-71);
},
{
pos = (14,-141);
}
);
layerId = "0958FC36-93C5-41FF-91C0-A570E699983E";
name = "11 Feb 26 at 23:01";
shapes = (
{
attr = {
strokeWidth = 56;
};
closed = 0;
nodes = (
(23,430,l),
(64,466,l),
(112,419,l),
(112,346,l),
(112,64,l),
(112,12,l),
(23,-118,l)
);
},
{
attr = {
strokeWidth = 56;
};
closed = 0;
nodes = (
(110,530,l),
(160,578,l)
);
},
{
attr = {
strokeWidth = 56;
};
closed = 0;
nodes = (
(121,410,l),
(152,439,l)
);
},
{
attr = {
strokeWidth = 56;
};
closed = 0;
nodes = (
(121,22,l),
(152,51,l)
);
}
);
width = 224;
}
);
unicode = 106;
},
{
glyphname = m;
lastChange = "2026-02-11 18:51:28 +0000";
layers = (
{
layerId = "BB1E0B62-8800-4897-8DA4-2FB7C2EA9BE3";
shapes = (
{
attr = {
strokeWidth = 56;
};
closed = 0;
nodes = (
(9,430,l),
(50,466,l),
(98,419,l),
(98,346,l),
(98,64,l),
(146,33,l),
(158,46,o),
(168,60,o),
(180,73,c)
);
},
{
attr = {
strokeWidth = 56;
};
closed = 0;
nodes = (
(322,385,l),
(322,64,l),
(370,33,l),
(404,73,l)
);
},
{
attr = {
strokeWidth = 56;
};
closed = 0;
nodes = (
(98,364,l),
(244,466,l),
(322,385,l)
);
},
{
attr = {
strokeWidth = 56;
};
closed = 0;
nodes = (
(72,80,l),
(107,58,l)
);
},
{
attr = {
strokeWidth = 56;
};
closed = 0;
nodes = (
(296,80,l),
(331,58,l)
);
},
{
attr = {
strokeWidth = 56;
};
closed = 0;
nodes = (
(547,385,l),
(547,64,l),
(595,33,l),
(629,73,l)
);
},
{
attr = {
strokeWidth = 56;
};
closed = 0;
nodes = (
(323,364,l),
(469,466,l),
(547,385,l),
(578,410,l)
);
},
{
attr = {
strokeWidth = 56;
};
closed = 0;
nodes = (
(521,80,l),
(556,58,l)
);
}
);
width = 631;
},
{
layerId = "ABEE408E-F1F2-48F1-B0CF-1BE6048DE736";
shapes = (
{
closed = 1;
nodes = (
(53,391,l),
(15,431,l),
(86,499,l),
(168,419,l),
(168,69,l),
(112,79,l),
(112,395,l),
(86,421,l)
);
},
{
closed = 1;
nodes = (
(121,359,l),
(296,500,l),
(391,394,l),
(391,71,l),
(335,71,l),
(335,372,l),
(292,420,l),
(159,317,l)
);
},
{
closed = 1;
nodes = (
(347,359,l),
(522,500,l),
(617,394,l),
(617,72,l),
(561,72,l),
(561,372,l),
(518,420,l),
(385,317,l)
);
},
{
closed = 1;
nodes = (
(324,75,l),
(359,123,l),
(419,72,l),
(450,104,l),
(490,66,l),
(425,-2,l)
);
},
{
closed = 1;
nodes = (
(96,75,l),
(131,123,l),
(191,72,l),
(222,104,l),
(262,66,l),
(197,-2,l)
);
},
{
closed = 1;
nodes = (
(544,75,l),
(579,123,l),
(639,72,l),
(670,104,l),
(710,66,l),
(645,-2,l)
);
},
{
closed = 1;
nodes = (
(602,364,l),
(566,406,l),
(632,462,l),
(668,420,l)
);
}
);
width = 728;
},
{
layerId = "45694E59-AA00-4651-8C52-E54C12FC4B80";
shapes = (
{
attr = {
strokeWidth = 56;
};
closed = 0;
nodes = (
(9,430,l),
(50,466,l),
(98,419,l),
(98,346,l),
(98,64,l),
(146,33,l),
(158,46,o),
(168,60,o),
(180,73,c)
);
},
{
attr = {
strokeWidth = 56;
};
closed = 0;
nodes = (
(322,385,l),
(322,64,l),
(370,33,l),
(404,73,l)
);
},
{
attr = {
strokeWidth = 56;
};
closed = 0;
nodes = (
(98,364,l),
(244,466,l),
(322,385,l)
);
},
{
attr = {
strokeWidth = 56;
};
closed = 0;
nodes = (
(72,80,l),
(107,58,l)
);
},
{
attr = {
strokeWidth = 56;
};
closed = 0;
nodes = (
(296,80,l),
(331,58,l)
);
},
{
attr = {
strokeWidth = 56;
};
closed = 0;
nodes = (
(547,385,l),
(547,64,l),
(595,33,l),
(629,73,l)
);
},
{
attr = {
strokeWidth = 56;
};
closed = 0;
nodes = (
(323,364,l),
(469,466,l),
(547,385,l),
(578,410,l)
);
},
{
attr = {
strokeWidth = 56;
};
closed = 0;
nodes = (
(521,80,l),
(556,58,l)
);
}
);
width = 631;
},
{
associatedMasterId = "4F3E9B02-E456-4626-B03D-CB5849416C61";
layerId = "ED1948E8-58BF-4D94-A616-31BC19C67D0C";
name = "11 Feb 26 at 20:05";
shapes = (
{
closed = 1;
nodes = (
(13,391,l),
(-25,431,l),
(46,499,l),
(128,419,l),
(128,69,l),
(72,79,l),
(72,395,l),
(46,421,l)
);
},
{
closed = 1;
nodes = (
(81,359,l),
(256,500,l),
(351,394,l),
(351,71,l),
(295,71,l),
(295,372,l),
(252,420,l),
(119,317,l)
);
},
{
closed = 1;
nodes = (
(307,359,l),
(482,500,l),
(577,394,l),
(577,72,l),
(521,72,l),
(521,372,l),
(478,420,l),
(345,317,l)
);
},
{
closed = 1;
nodes = (
(284,75,l),
(319,123,l),
(379,72,l),
(410,104,l),
(450,66,l),
(385,-2,l)
);
},
{
closed = 1;
nodes = (
(56,75,l),
(91,123,l),
(151,72,l),
(182,104,l),
(222,66,l),
(157,-2,l)
);
},
{
closed = 1;
nodes = (
(504,75,l),
(539,123,l),
(599,72,l),
(630,104,l),
(670,66,l),
(605,-2,l)
);
},
{
closed = 1;
nodes = (
(562,364,l),
(526,406,l),
(592,462,l),
(628,420,l)
);
}
);
width = 688;
},
{
layerId = "4F3E9B02-E456-4626-B03D-CB5849416C61";
name = Regular;
shapes = (
{
attr = {
strokeWidth = 56;
};
closed = 0;
nodes = (
(23,430,l),
(64,466,l),
(112,419,l),
(112,346,l),
(112,64,l),
(160,33,l),
(194,73,l)
);
},
{
attr = {
strokeWidth = 56;
};
closed = 0;
nodes = (
(336,385,l),
(336,64,l),
(384,33,l),
(418,73,l)
);
},
{
attr = {
strokeWidth = 56;
};
closed = 0;
nodes = (
(112,364,l),
(258,466,l),
(336,385,l)
);
},
{
attr = {
strokeWidth = 56;
};
closed = 0;
nodes = (
(86,80,l),
(121,58,l)
);
},
{
attr = {
strokeWidth = 56;
};
closed = 0;
nodes = (
(310,80,l),
(345,58,l)
);
},
{
attr = {
strokeWidth = 56;
};
closed = 0;
nodes = (
(561,385,l),
(561,64,l),
(609,33,l),
(643,73,l)
);
},
{
attr = {
strokeWidth = 56;
};
closed = 0;
nodes = (
(337,364,l),
(483,466,l),
(561,385,l),
(602,420,l)
);
},
{
attr = {
strokeWidth = 56;
};
closed = 0;
nodes = (
(535,80,l),
(570,58,l)
);
}
);
width = 672;
},
{
associatedMasterId = "4F3E9B02-E456-4626-B03D-CB5849416C61";
layerId = "C4AD61F9-1C28-4B4C-BA34-FEED8574BC32";
name = "11 Feb 26 at 21:13";
shapes = (
{
attr = {
strokeWidth = 56;
};
closed = 0;
nodes = (
(9,430,l),
(50,466,l),
(98,419,l),
(98,346,l),
(98,64,l),
(146,33,l),
(158,46,o),
(168,60,o),
(180,73,c)
);
},
{
attr = {
strokeWidth = 56;
};
closed = 0;
nodes = (
(322,385,l),
(322,64,l),
(370,33,l),
(404,73,l)
);
},
{
attr = {
strokeWidth = 56;
};
closed = 0;
nodes = (
(98,364,l),
(244,466,l),
(322,385,l)
);
},
{
attr = {
strokeWidth = 56;
};
closed = 0;
nodes = (
(72,80,l),
(107,58,l)
);
},
{
attr = {
strokeWidth = 56;
};
closed = 0;
nodes = (
(296,80,l),
(331,58,l)
);
},
{
attr = {
strokeWidth = 56;
};
closed = 0;
nodes = (
(547,385,l),
(547,64,l),
(595,33,l),
(629,73,l)
);
},
{
attr = {
strokeWidth = 56;
};
closed = 0;
nodes = (
(323,364,l),
(469,466,l),
(547,385,l),
(578,410,l)
);
},
{
attr = {
strokeWidth = 56;
};
closed = 0;
nodes = (
(521,80,l),
(556,58,l)
);
}
);
width = 631;
},
{
associatedMasterId = "4F3E9B02-E456-4626-B03D-CB5849416C61";
layerId = "80B1940F-44F0-471C-8679-E457D499A7F0";
name = "11 Feb 26 at 21:16";
shapes = (
{
attr = {
strokeWidth = 56;
};
closed = 0;
nodes = (
(9,430,l),
(50,466,l),
(98,419,l),
(98,346,l),
(98,64,l),
(146,33,l),
(158,46,o),
(168,60,o),
(180,73,c)
);
},
{
attr = {
strokeWidth = 56;
};
closed = 0;
nodes = (
(322,385,l),
(322,64,l),
(370,33,l),
(404,73,l)
);
},
{
attr = {
strokeWidth = 56;
};
closed = 0;
nodes = (
(98,364,l),
(244,466,l),
(322,385,l)
);
},
{
attr = {
strokeWidth = 56;
};
closed = 0;
nodes = (
(72,80,l),
(107,58,l)
);
},
{
attr = {
strokeWidth = 56;
};
closed = 0;
nodes = (
(296,80,l),
(331,58,l)
);
},
{
attr = {
strokeWidth = 56;
};
closed = 0;
nodes = (
(547,385,l),
(547,64,l),
(595,33,l),
(629,73,l)
);
},
{
attr = {
strokeWidth = 56;
};
closed = 0;
nodes = (
(323,364,l),
(469,466,l),
(547,385,l),
(588,420,l)
);
},
{
attr = {
strokeWidth = 56;
};
closed = 0;
nodes = (
(521,80,l),
(556,58,l)
);
}
);
width = 644;
}
);
unicode = 109;
},
{
glyphname = l;
lastChange = "2026-02-11 19:31:15 +0000";
layers = (
{
layerId = "BB1E0B62-8800-4897-8DA4-2FB7C2EA9BE3";
shapes = (
{
attr = {
strokeWidth = 56;
};
closed = 0;
nodes = (
(9,629,l),
(50,665,l),
(98,618,l),
(98,346,l),
(98,64,l),
(146,33,l),
(146,33,o),
(180,73,o),
(180,73,c)
);
},
{
attr = {
strokeWidth = 56;
};
closed = 0;
nodes = (
(72,80,l),
(107,58,l)
);
},
{
attr = {
strokeWidth = 56;
};
closed = 0;
nodes = (
(109,614,l),
(140,639,l)
);
}
);
width = 182;
},
{
guides = (
{
pos = (0,699);
}
);
layerId = "ABEE408E-F1F2-48F1-B0CF-1BE6048DE736";
shapes = (
{
attr = {
strokeWidth = 56;
};
closed = 1;
nodes = (
(40,591,l),
(2,631,l),
(73,699,l),
(155,619,l),
(155,70,l),
(99,80,l),
(99,595,l),
(73,621,l)
);
},
{
attr = {
strokeWidth = 56;
};
closed = 1;
nodes = (
(83,76,l),
(118,124,l),
(178,73,l),
(209,105,l),
(249,67,l),
(184,-1,l)
);
},
{
closed = 1;
nodes = (
(87,636,l),
(111,664,o),
(180,711,o),
(242,652,c),
(204,612,l),
(180,635,o),
(149,622,o),
(129,600,c)
);
}
);
width = 253;
},
{
layerId = "45694E59-AA00-4651-8C52-E54C12FC4B80";
shapes = (
{
attr = {
strokeWidth = 56;
};
closed = 0;
nodes = (
(9,629,l),
(50,665,l),
(98,618,l),
(98,346,l),
(98,64,l),
(146,33,l),
(146,33,o),
(180,73,o),
(180,73,c)
);
},
{
attr = {
strokeWidth = 56;
};
closed = 0;
nodes = (
(72,80,l),
(107,58,l)
);
},
{
attr = {
strokeWidth = 56;
};
closed = 0;
nodes = (
(109,614,l),
(140,639,l)
);
}
);
width = 182;
},
{
associatedMasterId = "4F3E9B02-E456-4626-B03D-CB5849416C61";
guides = (
{
pos = (0,699);
}
);
layerId = "8F1BF558-896B-478A-95A7-D03A31E9CC2C";
name = "11 Feb 26 at 14:03";
shapes = (
{
attr = {
strokeWidth = 56;
};
closed = 1;
nodes = (
(40,591,l),
(2,631,l),
(73,699,l),
(155,619,l),
(155,70,l),
(99,80,l),
(99,595,l),
(73,621,l)
);
},
{
attr = {
strokeWidth = 56;
};
closed = 1;
nodes = (
(83,76,l),
(118,124,l),
(178,73,l),
(209,105,l),
(249,67,l),
(184,-1,l)
);
},
{
closed = 1;
nodes = (
(87,636,l),
(111,664,o),
(180,711,o),
(242,652,c),
(204,612,l),
(180,635,o),
(149,622,o),
(129,600,c)
);
}
);
width = 253;
},
{
layerId = "4F3E9B02-E456-4626-B03D-CB5849416C61";
name = Regular;
shapes = (
{
attr = {
strokeWidth = 56;
};
closed = 0;
nodes = (
(23,619,l),
(64,655,l),
(112,618,l),
(112,346,l),
(112,64,l),
(160,33,l),
(160,33,o),
(194,73,o),
(194,73,c)
);
},
{
attr = {
strokeWidth = 56;
};
closed = 0;
nodes = (
(86,80,l),
(121,58,l)
);
},
{
attr = {
strokeWidth = 56;
};
closed = 0;
nodes = (
(123,614,l),
(154,639,l)
);
}
);
width = 224;
}
);
unicode = 108;
},
{
glyphname = f;
lastChange = "2026-02-11 19:03:37 +0000";
layers = (
{
layerId = "BB1E0B62-8800-4897-8DA4-2FB7C2EA9BE3";
shapes = (
{
attr = {
strokeWidth = 56;
};
closed = 0;
nodes = (
(72,80,l),
(107,58,l)
);
},
{
attr = {
strokeWidth = 56;
};
closed = 0;
nodes = (
(180,73,l),
(180,73,o),
(146,33,o),
(146,33,c),
(98,64,l),
(98,628,l),
(151,664,l),
(208,612,l)
);
},
{
attr = {
strokeWidth = 56;
};
closed = 0;
nodes = (
(43,463,l),
(197,463,l)
);
}
);
width = 212;
},
{
guides = (
{
pos = (0,699);
},
{
angle = 90;
pos = (230,0);
}
);
layerId = "ABEE408E-F1F2-48F1-B0CF-1BE6048DE736";
shapes = (
{
closed = 1;
nodes = (
(126,595,l),
(126,70,l),
(70,80,l),
(70,595,l)
);
},
{
closed = 1;
nodes = (
(54,76,l),
(89,124,l),
(149,73,l),
(180,105,l),
(220,67,l),
(155,-1,l)
);
},
{
closed = 1;
nodes = (
(126,544,l),
(70,544,l),
(70,640,l),
(154,698,l),
(183,679,o),
(197,660,o),
(230,638,c),
(198,592,l),
(178,605,o),
(163,619,o),
(152,629,c),
(126,610,l)
);
},
{
closed = 1;
nodes = (
(19,448,l),
(46,500,l),
(227,500,l),
(201,448,l)
);
}
);
width = 224;
},
{
layerId = "45694E59-AA00-4651-8C52-E54C12FC4B80";
shapes = (
{
attr = {
strokeWidth = 56;
};
closed = 0;
nodes = (
(72,80,l),
(107,58,l)
);
},
{
attr = {
strokeWidth = 56;
};
closed = 0;
nodes = (
(180,73,l),
(180,73,o),
(146,33,o),
(146,33,c),
(98,64,l),
(98,628,l),
(151,664,l),
(208,612,l)
);
},
{
attr = {
strokeWidth = 56;
};
closed = 0;
nodes = (
(43,463,l),
(197,463,l)
);
}
);
width = 212;
},
{
associatedMasterId = "4F3E9B02-E456-4626-B03D-CB5849416C61";
guides = (
{
pos = (0,699);
},
{
angle = 90;
pos = (230,0);
}
);
layerId = "F890AAFA-E98E-421C-84D6-839AE683CFC0";
name = "11 Feb 26 at 13:46";
shapes = (
{
closed = 1;
nodes = (
(126,595,l),
(126,70,l),
(70,80,l),
(70,595,l)
);
},
{
closed = 1;
nodes = (
(54,76,l),
(89,124,l),
(149,73,l),
(180,105,l),
(220,67,l),
(155,-1,l)
);
},
{
closed = 1;
nodes = (
(126,544,l),
(70,544,l),
(70,640,l),
(154,698,l),
(183,679,o),
(197,660,o),
(230,638,c),
(198,592,l),
(178,605,o),
(163,619,o),
(152,629,c),
(126,610,l)
);
},
{
closed = 1;
nodes = (
(19,448,l),
(46,500,l),
(227,500,l),
(201,448,l)
);
}
);
width = 224;
},
{
layerId = "4F3E9B02-E456-4626-B03D-CB5849416C61";
name = Regular;
shapes = (
{
attr = {
strokeWidth = 56;
};
closed = 0;
nodes = (
(69,91,l),
(121,59,l)
);
},
{
attr = {
strokeWidth = 56;
};
closed = 0;
nodes = (
(239,103,l),
(161,33,l),
(112,64,l),
(112,578,l),
(215,666,l),
(302,584,l)
);
},
{
attr = {
strokeWidth = 56;
};
closed = 0;
nodes = (
(28,463,l),
(280,463,l)
);
}
);
width = 294;
},
{
associatedMasterId = "4F3E9B02-E456-4626-B03D-CB5849416C61";
layerId = "8E9EE3D8-472E-4EB1-85D3-92F35A5CFDB9";
name = "11 Feb 26 at 14:01";
shapes = (
{
attr = {
strokeWidth = 56;
};
closed = 0;
nodes = (
(72,80,l),
(107,58,l)
);
},
{
attr = {
strokeWidth = 56;
};
closed = 0;
nodes = (
(180,73,l),
(180,73,o),
(146,33,o),
(146,33,c),
(98,64,l),
(98,628,l),
(151,664,l),
(208,612,l)
);
},
{
attr = {
strokeWidth = 56;
};
closed = 0;
nodes = (
(43,463,l),
(197,463,l)
);
}
);
width = 212;
},
{
associatedMasterId = "4F3E9B02-E456-4626-B03D-CB5849416C61";
layerId = "D69F8DED-697A-4C9D-8FCB-F6ABDF2DB39C";
name = "11 Feb 26 at 23:03";
shapes = (
{
attr = {
strokeWidth = 56;
};
closed = 0;
nodes = (
(52,100,l),
(107,68,l)
);
},
{
attr = {
strokeWidth = 56;
};
closed = 0;
nodes = (
(230,103,l),
(230,103,o),
(170,33,o),
(170,33,c),
(98,74,l),
(98,588,l),
(181,664,l),
(288,582,l)
);
},
{
attr = {
strokeWidth = 56;
};
closed = 0;
nodes = (
(43,463,l),
(238,463,l)
);
}
);
width = 238;
},
{
associatedMasterId = "4F3E9B02-E456-4626-B03D-CB5849416C61";
layerId = "D68CA345-1950-456B-AC28-075A45DFAB51";
name = "11 Feb 26 at 23:30";
shapes = (
{
attr = {
strokeWidth = 56;
};
closed = 0;
nodes = (
(66,100,l),
(121,68,l)
);
},
{
attr = {
strokeWidth = 56;
};
closed = 0;
nodes = (
(234,103,l),
(234,103,o),
(174,33,o),
(174,33,c),
(112,74,l),
(112,588,l),
(195,664,l),
(302,582,l)
);
},
{
attr = {
strokeWidth = 56;
};
closed = 0;
nodes = (
(28,463,l),
(266,463,l)
);
}
);
width = 308;
}
);
unicode = 102;
},
{
glyphname = u;
lastChange = "2026-02-11 19:34:40 +0000";
layers = (
{
layerId = "BB1E0B62-8800-4897-8DA4-2FB7C2EA9BE3";
shapes = (
{
attr = {
strokeWidth = 56;
};
closed = 0;
nodes = (
(9,430,l),
(50,466,l),
(98,419,l),
(98,346,l),
(98,93,l),
(98,83,l)
);
},
{
attr = {
strokeWidth = 56;
};
closed = 0;
nodes = (
(404,73,l),
(370,33,l),
(322,64,l),
(322,419,l),
(271,471,l)
);
},
{
attr = {
strokeWidth = 56;
};
closed = 0;
nodes = (
(332,414,l),
(363,439,l)
);
},
{
attr = {
strokeWidth = 56;
};
closed = 0;
nodes = (
(83,107,l),
(220,35,l),
(326,143,l)
);
}
);
width = 406;
},
{
layerId = "ABEE408E-F1F2-48F1-B0CF-1BE6048DE736";
shapes = (
{
closed = 1;
nodes = (
(320,489,l),
(379,429,l),
(379,70,l),
(323,70,l),
(323,405,l),
(278,447,l)
);
},
{
closed = 1;
nodes = (
(323,70,l),
(356,117,l),
(406,73,l),
(433,105,l),
(473,72,l),
(408,-1,l)
);
},
{
closed = 1;
nodes = (
(366,374,l),
(330,416,l),
(400,476,l),
(436,434,l)
);
},
{
closed = 1;
nodes = (
(39,391,l),
(1,431,l),
(72,499,l),
(154,419,l),
(154,70,l),
(98,70,l),
(98,395,l),
(72,421,l)
);
},
{
closed = 1;
nodes = (
(98,70,l),
(127,118,l),
(207,67,l),
(335,204,l),
(359,162,l),
(207,0,l)
);
}
);
width = 533;
},
{
layerId = "45694E59-AA00-4651-8C52-E54C12FC4B80";
shapes = (
{
attr = {
strokeWidth = 56;
};
closed = 0;
nodes = (
(9,430,l),
(50,466,l),
(98,419,l),
(98,346,l),
(98,93,l),
(98,83,l)
);
},
{
attr = {
strokeWidth = 56;
};
closed = 0;
nodes = (
(404,73,l),
(370,33,l),
(322,64,l),
(322,419,l),
(271,471,l)
);
},
{
attr = {
strokeWidth = 56;
};
closed = 0;
nodes = (
(332,414,l),
(363,439,l)
);
},
{
attr = {
strokeWidth = 56;
};
closed = 0;
nodes = (
(83,107,l),
(220,35,l),
(326,143,l)
);
}
);
width = 406;
},
{
associatedMasterId = "4F3E9B02-E456-4626-B03D-CB5849416C61";
layerId = "3C018589-C8C9-4F00-8FEA-043FABD1F0CC";
name = "11 Feb 26 at 20:05";
shapes = (
{
closed = 1;
nodes = (
(320,489,l),
(379,429,l),
(379,70,l),
(323,70,l),
(323,405,l),
(278,447,l)
);
},
{
closed = 1;
nodes = (
(323,70,l),
(356,117,l),
(406,73,l),
(433,105,l),
(473,72,l),
(408,-1,l)
);
},
{
closed = 1;
nodes = (
(366,374,l),
(330,416,l),
(400,476,l),
(436,434,l)
);
},
{
closed = 1;
nodes = (
(39,391,l),
(1,431,l),
(72,499,l),
(154,419,l),
(154,70,l),
(98,70,l),
(98,395,l),
(72,421,l)
);
},
{
closed = 1;
nodes = (
(98,70,l),
(127,118,l),
(207,67,l),
(335,204,l),
(359,162,l),
(207,0,l)
);
}
);
width = 533;
},
{
associatedMasterId = "4F3E9B02-E456-4626-B03D-CB5849416C61";
layerId = "C98F8408-401C-49BC-AAC7-9BD00D022D89";
name = "11 Feb 26 at 21:12";
shapes = (
{
attr = {
strokeWidth = 56;
};
closed = 0;
nodes = (
(9,430,l),
(50,466,l),
(98,419,l),
(98,346,l),
(98,93,l),
(98,83,l)
);
},
{
attr = {
strokeWidth = 56;
};
closed = 0;
nodes = (
(404,73,l),
(370,33,l),
(322,64,l),
(322,419,l),
(271,471,l)
);
},
{
attr = {
strokeWidth = 56;
};
closed = 0;
nodes = (
(332,414,l),
(363,439,l)
);
},
{
attr = {
strokeWidth = 56;
};
closed = 0;
nodes = (
(83,107,l),
(220,35,l),
(326,143,l)
);
}
);
width = 406;
},
{
associatedMasterId = "4F3E9B02-E456-4626-B03D-CB5849416C61";
layerId = "61BA9B24-3650-4F99-8CFA-6B2CD241FEE7";
name = "11 Feb 26 at 23:33";
shapes = (
{
attr = {
strokeWidth = 56;
};
closed = 0;
nodes = (
(425,69,l),
(384,33,l),
(336,80,l),
(336,153,l),
(336,435,l),
(288,466,l),
(288,466,o),
(254,426,o),
(254,426,c)
);
},
{
attr = {
strokeWidth = 56;
};
closed = 0;
nodes = (
(112,114,l),
(112,435,l),
(84,466,l),
(30,426,l)
);
},
{
attr = {
strokeWidth = 56;
};
closed = 0;
nodes = (
(336,135,l),
(190,33,l),
(112,114,l),
(71,79,l)
);
},
{
attr = {
strokeWidth = 56;
};
closed = 0;
nodes = (
(362,419,l),
(327,441,l)
);
},
{
attr = {
strokeWidth = 56;
};
closed = 0;
nodes = (
(138,407,l),
(103,441,l)
);
}
);
width = 448;
},
{
layerId = "4F3E9B02-E456-4626-B03D-CB5849416C61";
name = Regular;
shapes = (
{
attr = {
strokeWidth = 56;
};
closed = 0;
nodes = (
(23,430,l),
(64,466,l),
(112,419,l),
(112,346,l),
(112,113,l),
(112,103,l)
);
},
{
attr = {
strokeWidth = 56;
};
closed = 0;
nodes = (
(418,73,l),
(384,33,l),
(336,64,l),
(336,419,l),
(284,466,l),
(250,430,l)
);
},
{
attr = {
strokeWidth = 56;
};
closed = 0;
nodes = (
(346,414,l),
(377,439,l)
);
},
{
attr = {
strokeWidth = 56;
};
closed = 0;
nodes = (
(336,136,l),
(190,34,l),
(112,115,l),
(71,80,l)
);
}
);
width = 448;
}
);
unicode = 117;
},
{
glyphname = v;
lastChange = "2026-02-11 19:34:36 +0000";
layers = (
{
layerId = "BB1E0B62-8800-4897-8DA4-2FB7C2EA9BE3";
shapes = (
{
attr = {
strokeWidth = 56;
};
closed = 0;
nodes = (
(9,430,l),
(50,466,l),
(98,419,l),
(98,346,l),
(98,93,l),
(98,83,l)
);
},
{
attr = {
strokeWidth = 56;
};
closed = 0;
nodes = (
(271,471,l),
(322,419,l),
(322,93,l),
(226,30,l),
(62,118,l)
);
},
{
attr = {
strokeWidth = 56;
};
closed = 0;
nodes = (
(332,414,l),
(363,439,l)
);
}
);
width = 401;
},
{
layerId = "ABEE408E-F1F2-48F1-B0CF-1BE6048DE736";
shapes = (
{
closed = 1;
nodes = (
(320,489,l),
(379,429,l),
(379,70,l),
(323,70,l),
(323,405,l),
(278,447,l)
);
},
{
closed = 1;
nodes = (
(366,374,l),
(330,416,l),
(400,476,l),
(436,434,l)
);
},
{
closed = 1;
nodes = (
(39,391,l),
(1,431,l),
(72,499,l),
(154,419,l),
(154,70,l),
(98,70,l),
(98,395,l),
(72,421,l)
);
},
{
closed = 1;
nodes = (
(379,70,l),
(318,74,o),
(275,57,o),
(208,0,c),
(98,70,l),
(127,118,l),
(207,67,l),
(237,89,o),
(280,110,o),
(323,118,c)
);
}
);
width = 448;
},
{
layerId = "45694E59-AA00-4651-8C52-E54C12FC4B80";
shapes = (
{
attr = {
strokeWidth = 56;
};
closed = 0;
nodes = (
(9,430,l),
(50,466,l),
(98,419,l),
(98,346,l),
(98,93,l),
(98,83,l)
);
},
{
attr = {
strokeWidth = 56;
};
closed = 0;
nodes = (
(271,471,l),
(322,419,l),
(322,93,l),
(226,30,l),
(62,118,l)
);
},
{
attr = {
strokeWidth = 56;
};
closed = 0;
nodes = (
(332,414,l),
(363,439,l)
);
}
);
width = 401;
},
{
associatedMasterId = "4F3E9B02-E456-4626-B03D-CB5849416C61";
layerId = "457D3439-E665-4C81-8F9E-99AB9F2C742E";
name = pen;
shapes = (
{
attr = {
strokeWidth = 56;
};
closed = 0;
nodes = (
(9,430,l),
(50,466,l),
(98,419,l),
(98,346,l),
(98,93,l),
(98,83,l)
);
},
{
attr = {
strokeWidth = 56;
};
closed = 0;
nodes = (
(271,471,l),
(322,419,l),
(322,93,l),
(226,30,l),
(62,118,l)
);
},
{
attr = {
strokeWidth = 56;
};
closed = 0;
nodes = (
(332,414,l),
(363,439,l)
);
}
);
width = 401;
},
{
layerId = "4F3E9B02-E456-4626-B03D-CB5849416C61";
shapes = (
{
attr = {
strokeWidth = 56;
};
closed = 0;
nodes = (
(244,427,l),
(278,467,l),
(336,416,l),
(336,154,l),
(336,136,l),
(190,34,l),
(112,115,l)
);
},
{
attr = {
strokeWidth = 56;
};
closed = 0;
nodes = (
(112,115,l),
(112,416,l),
(54,467,l),
(20,427,l)
);
},
{
attr = {
strokeWidth = 56;
};
closed = 0;
nodes = (
(347,414,l),
(378,439,l)
);
},
{
attr = {
strokeWidth = 56;
};
closed = 0;
nodes = (
(336,136,l),
(190,34,l),
(112,115,l),
(71,80,l)
);
}
);
width = 434;
},
{
associatedMasterId = "4F3E9B02-E456-4626-B03D-CB5849416C61";
layerId = "2D570E4D-C9AB-4F41-B1E6-A76E7BEB49C5";
name = "12 Feb 26 at 00:23";
shapes = (
{
closed = 1;
nodes = (
(320,489,l),
(379,429,l),
(379,70,l),
(323,70,l),
(323,405,l),
(278,447,l)
);
},
{
closed = 1;
nodes = (
(366,374,l),
(330,416,l),
(400,476,l),
(436,434,l)
);
},
{
closed = 1;
nodes = (
(39,391,l),
(1,431,l),
(72,499,l),
(154,419,l),
(154,70,l),
(98,70,l),
(98,395,l),
(72,421,l)
);
},
{
closed = 1;
nodes = (
(379,70,l),
(318,74,o),
(275,57,o),
(208,0,c),
(98,70,l),
(127,118,l),
(207,67,l),
(237,89,o),
(280,110,o),
(323,118,c)
);
}
);
width = 448;
}
);
unicode = 118;
},
{
glyphname = w;
lastChange = "2026-02-11 19:34:32 +0000";
layers = (
{
layerId = "BB1E0B62-8800-4897-8DA4-2FB7C2EA9BE3";
shapes = (
{
attr = {
strokeWidth = 56;
};
closed = 0;
nodes = (
(9,430,l),
(50,466,l),
(98,419,l),
(98,346,l),
(98,93,l),
(98,81,l)
);
},
{
attr = {
strokeWidth = 56;
};
closed = 0;
nodes = (
(271,471,l),
(322,419,l),
(322,93,l),
(227,30,l),
(62,118,l)
);
},
{
attr = {
strokeWidth = 56;
};
closed = 0;
nodes = (
(495,471,l),
(546,419,l),
(546,93,l),
(468,30,l),
(323,107,l)
);
},
{
attr = {
strokeWidth = 56;
};
closed = 0;
nodes = (
(556,414,l),
(587,439,l)
);
}
);
width = 625;
},
{
layerId = "ABEE408E-F1F2-48F1-B0CF-1BE6048DE736";
shapes = (
{
closed = 1;
nodes = (
(320,491,l),
(379,431,l),
(379,70,l),
(323,70,l),
(323,407,l),
(278,449,l)
);
},
{
closed = 1;
nodes = (
(39,391,l),
(1,431,l),
(72,499,l),
(154,419,l),
(154,70,l),
(98,70,l),
(98,395,l),
(72,421,l)
);
},
{
closed = 1;
nodes = (
(379,70,l),
(318,74,o),
(275,57,o),
(208,0,c),
(98,70,l),
(127,118,l),
(207,67,l),
(237,89,o),
(280,110,o),
(323,118,c)
);
},
{
closed = 1;
nodes = (
(320,491,l),
(379,431,l),
(379,70,l),
(323,70,l),
(323,407,l),
(278,449,l)
);
},
{
closed = 1;
nodes = (
(379,70,l),
(318,74,o),
(275,57,o),
(208,0,c),
(98,70,l),
(127,118,l),
(207,67,l),
(237,89,o),
(280,110,o),
(323,118,c)
);
},
{
closed = 1;
nodes = (
(543,491,l),
(602,431,l),
(602,70,l),
(546,70,l),
(546,407,l),
(501,449,l)
);
},
{
closed = 1;
nodes = (
(589,376,l),
(553,418,l),
(623,478,l),
(659,436,l)
);
},
{
closed = 1;
nodes = (
(602,70,l),
(541,74,o),
(498,57,o),
(431,0,c),
(321,70,l),
(350,118,l),
(430,67,l),
(460,89,o),
(503,110,o),
(546,118,c)
);
}
);
width = 786;
},
{
layerId = "45694E59-AA00-4651-8C52-E54C12FC4B80";
shapes = (
{
attr = {
strokeWidth = 56;
};
closed = 0;
nodes = (
(9,430,l),
(50,466,l),
(98,419,l),
(98,346,l),
(98,93,l),
(98,81,l)
);
},
{
attr = {
strokeWidth = 56;
};
closed = 0;
nodes = (
(271,471,l),
(322,419,l),
(322,93,l),
(227,30,l),
(62,118,l)
);
},
{
attr = {
strokeWidth = 56;
};
closed = 0;
nodes = (
(495,471,l),
(546,419,l),
(546,93,l),
(468,30,l),
(323,107,l)
);
},
{
attr = {
strokeWidth = 56;
};
closed = 0;
nodes = (
(556,414,l),
(587,439,l)
);
}
);
width = 625;
},
{
associatedMasterId = "4F3E9B02-E456-4626-B03D-CB5849416C61";
layerId = "457D3439-E665-4C81-8F9E-99AB9F2C742E";
name = pen;
shapes = (
{
attr = {
strokeWidth = 56;
};
closed = 0;
nodes = (
(9,430,l),
(50,466,l),
(98,419,l),
(98,346,l),
(98,93,l),
(98,81,l)
);
},
{
attr = {
strokeWidth = 56;
};
closed = 0;
nodes = (
(271,471,l),
(322,419,l),
(322,93,l),
(227,30,l),
(62,118,l)
);
},
{
attr = {
strokeWidth = 56;
};
closed = 0;
nodes = (
(495,471,l),
(546,419,l),
(546,93,l),
(468,30,l),
(323,107,l)
);
},
{
attr = {
strokeWidth = 56;
};
closed = 0;
nodes = (
(556,414,l),
(587,439,l)
);
}
);
width = 625;
},
{
layerId = "4F3E9B02-E456-4626-B03D-CB5849416C61";
shapes = (
{
attr = {
strokeWidth = 56;
};
closed = 0;
nodes = (
(469,427,l),
(503,467,l),
(561,416,l),
(561,154,l),
(561,136,l),
(415,34,l),
(337,115,l)
);
},
{
attr = {
strokeWidth = 56;
};
closed = 0;
nodes = (
(337,115,l),
(337,416,l),
(279,467,l),
(245,427,l)
);
},
{
attr = {
strokeWidth = 56;
};
closed = 0;
nodes = (
(112,115,l),
(112,416,l),
(54,467,l),
(20,427,l)
);
},
{
attr = {
strokeWidth = 56;
};
closed = 0;
nodes = (
(336,136,l),
(190,34,l),
(112,115,l),
(71,80,l)
);
},
{
attr = {
strokeWidth = 56;
};
closed = 0;
nodes = (
(572,414,l),
(603,439,l)
);
}
);
width = 658;
},
{
associatedMasterId = "4F3E9B02-E456-4626-B03D-CB5849416C61";
layerId = "0E0EBBD0-FBCA-47CC-9C74-074F6CC66B4C";
name = "12 Feb 26 at 00:19";
shapes = (
{
closed = 1;
nodes = (
(320,491,l),
(379,431,l),
(379,70,l),
(323,70,l),
(323,407,l),
(278,449,l)
);
},
{
closed = 1;
nodes = (
(39,391,l),
(1,431,l),
(72,499,l),
(154,419,l),
(154,70,l),
(98,70,l),
(98,395,l),
(72,421,l)
);
},
{
closed = 1;
nodes = (
(379,70,l),
(318,74,o),
(275,57,o),
(208,0,c),
(98,70,l),
(127,118,l),
(207,67,l),
(237,89,o),
(280,110,o),
(323,118,c)
);
},
{
closed = 1;
nodes = (
(320,491,l),
(379,431,l),
(379,70,l),
(323,70,l),
(323,407,l),
(278,449,l)
);
},
{
closed = 1;
nodes = (
(379,70,l),
(318,74,o),
(275,57,o),
(208,0,c),
(98,70,l),
(127,118,l),
(207,67,l),
(237,89,o),
(280,110,o),
(323,118,c)
);
},
{
closed = 1;
nodes = (
(543,491,l),
(602,431,l),
(602,70,l),
(546,70,l),
(546,407,l),
(501,449,l)
);
},
{
closed = 1;
nodes = (
(589,376,l),
(553,418,l),
(623,478,l),
(659,436,l)
);
},
{
closed = 1;
nodes = (
(602,70,l),
(541,74,o),
(498,57,o),
(431,0,c),
(321,70,l),
(350,118,l),
(430,67,l),
(460,89,o),
(503,110,o),
(546,118,c)
);
}
);
width = 786;
}
);
unicode = 119;
},
{
glyphname = y;
lastChange = "2026-02-11 19:34:25 +0000";
layers = (
{
guides = (
{
pos = (0,-142);
}
);
layerId = "BB1E0B62-8800-4897-8DA4-2FB7C2EA9BE3";
shapes = (
{
attr = {
strokeWidth = 56;
};
closed = 0;
nodes = (
(9,430,l),
(50,466,l),
(98,419,l),
(98,346,l),
(98,93,l),
(98,83,l)
);
},
{
attr = {
strokeWidth = 56;
};
closed = 0;
nodes = (
(271,471,l),
(322,419,l),
(322,93,l),
(232,30,l),
(62,118,l)
);
},
{
attr = {
strokeWidth = 56;
};
closed = 0;
nodes = (
(332,414,l),
(363,439,l)
);
},
{
attr = {
strokeWidth = 56;
};
closed = 0;
nodes = (
(322,93,l),
(322,-38,l),
(211,-108,l),
(89,-38,l)
);
}
);
width = 411;
},
{
guides = (
{
pos = (0,-114);
}
);
layerId = "ABEE408E-F1F2-48F1-B0CF-1BE6048DE736";
shapes = (
{
closed = 1;
nodes = (
(319,489,l),
(378,429,l),
(378,70,l),
(322,70,l),
(322,405,l),
(277,447,l)
);
},
{
closed = 1;
nodes = (
(365,374,l),
(329,416,l),
(399,476,l),
(435,434,l)
);
},
{
closed = 1;
nodes = (
(38,391,l),
(0,431,l),
(71,499,l),
(153,419,l),
(153,70,l),
(97,70,l),
(97,395,l),
(71,421,l)
);
},
{
closed = 1;
nodes = (
(378,70,l),
(317,74,o),
(274,57,o),
(207,0,c),
(97,70,l),
(126,118,l),
(206,67,l),
(236,89,o),
(279,110,o),
(322,118,c)
);
},
{
closed = 1;
nodes = (
(322,0,l),
(322,119,l),
(378,119,l),
(378,0,l)
);
},
{
closed = 1;
nodes = (
(378,17,l),
(378,-54,l),
(316,-50,o),
(272,-78,o),
(229,-125,c),
(83,-56,l),
(107,-6,l),
(218,-58,l),
(262,-22,o),
(308,-2,o),
(322,1,c),
(322,17,l)
);
}
);
width = 510;
},
{
guides = (
{
pos = (0,-142);
}
);
layerId = "45694E59-AA00-4651-8C52-E54C12FC4B80";
shapes = (
{
attr = {
strokeWidth = 56;
};
closed = 0;
nodes = (
(9,430,l),
(50,466,l),
(98,419,l),
(98,346,l),
(98,93,l),
(98,83,l)
);
},
{
attr = {
strokeWidth = 56;
};
closed = 0;
nodes = (
(271,471,l),
(322,419,l),
(322,93,l),
(232,30,l),
(62,118,l)
);
},
{
attr = {
strokeWidth = 56;
};
closed = 0;
nodes = (
(332,414,l),
(363,439,l)
);
},
{
attr = {
strokeWidth = 56;
};
closed = 0;
nodes = (
(322,93,l),
(322,-38,l),
(211,-108,l),
(89,-38,l)
);
}
);
width = 411;
},
{
associatedMasterId = "4F3E9B02-E456-4626-B03D-CB5849416C61";
guides = (
{
pos = (0,-142);
}
);
layerId = "457D3439-E665-4C81-8F9E-99AB9F2C742E";
name = pen;
shapes = (
{
attr = {
strokeWidth = 56;
};
closed = 0;
nodes = (
(9,430,l),
(50,466,l),
(98,419,l),
(98,346,l),
(98,93,l),
(98,83,l)
);
},
{
attr = {
strokeWidth = 56;
};
closed = 0;
nodes = (
(271,471,l),
(322,419,l),
(322,93,l),
(232,30,l),
(62,118,l)
);
},
{
attr = {
strokeWidth = 56;
};
closed = 0;
nodes = (
(332,414,l),
(363,439,l)
);
},
{
attr = {
strokeWidth = 56;
};
closed = 0;
nodes = (
(322,93,l),
(322,-38,l),
(211,-108,l),
(89,-38,l)
);
}
);
width = 411;
},
{
guides = (
{
pos = (0,-114);
}
);
layerId = "4F3E9B02-E456-4626-B03D-CB5849416C61";
shapes = (
{
attr = {
strokeWidth = 56;
};
closed = 0;
nodes = (
(336,120,l),
(191,33,l),
(71,115,l)
);
},
{
attr = {
strokeWidth = 56;
};
closed = 0;
nodes = (
(93,-38,l),
(205,-108,l),
(336,-38,l),
(336,93,l),
(336,415,l),
(377,450,l)
);
},
{
attr = {
strokeWidth = 56;
};
closed = 0;
nodes = (
(23,430,l),
(64,466,l),
(112,419,l),
(112,346,l),
(112,113,l),
(112,103,l)
);
},
{
attr = {
strokeWidth = 56;
};
closed = 0;
nodes = (
(247,430,l),
(288,466,l),
(336,419,l)
);
}
);
width = 434;
},
{
associatedMasterId = "4F3E9B02-E456-4626-B03D-CB5849416C61";
guides = (
{
pos = (0,-114);
}
);
layerId = "E226584A-1363-4A89-9996-E28C3B1A43DB";
name = "11 Feb 26 at 23:25";
shapes = (
{
closed = 1;
nodes = (
(319,489,l),
(378,429,l),
(378,70,l),
(322,70,l),
(322,405,l),
(277,447,l)
);
},
{
closed = 1;
nodes = (
(365,374,l),
(329,416,l),
(399,476,l),
(435,434,l)
);
},
{
closed = 1;
nodes = (
(38,391,l),
(0,431,l),
(71,499,l),
(153,419,l),
(153,70,l),
(97,70,l),
(97,395,l),
(71,421,l)
);
},
{
closed = 1;
nodes = (
(378,70,l),
(317,74,o),
(274,57,o),
(207,0,c),
(97,70,l),
(126,118,l),
(206,67,l),
(236,89,o),
(279,110,o),
(322,118,c)
);
},
{
closed = 1;
nodes = (
(322,0,l),
(322,119,l),
(378,119,l),
(378,0,l)
);
},
{
closed = 1;
nodes = (
(378,17,l),
(378,-54,l),
(316,-50,o),
(272,-78,o),
(229,-125,c),
(83,-56,l),
(107,-6,l),
(218,-58,l),
(262,-22,o),
(308,-2,o),
(322,1,c),
(322,17,l)
);
}
);
width = 510;
}
);
unicode = 121;
},
{
glyphname = r;
lastChange = "2026-02-11 18:12:27 +0000";
layers = (
{
layerId = "BB1E0B62-8800-4897-8DA4-2FB7C2EA9BE3";
shapes = (
{
attr = {
strokeWidth = 56;
};
closed = 0;
nodes = (
(9,430,l),
(50,466,l),
(98,419,l),
(98,346,l),
(98,64,l),
(146,33,l),
(146,33,o),
(180,73,o),
(180,73,c)
);
},
{
attr = {
strokeWidth = 56;
};
closed = 0;
nodes = (
(98,364,l),
(214,471,l),
(289,391,l)
);
},
{
attr = {
strokeWidth = 56;
};
closed = 0;
nodes = (
(72,80,l),
(107,58,l)
);
}
);
width = 310;
},
{
layerId = "ABEE408E-F1F2-48F1-B0CF-1BE6048DE736";
shapes = (
{
closed = 1;
nodes = (
(96,76,l),
(131,124,l),
(191,73,l),
(222,105,l),
(262,67,l),
(197,-1,l)
);
},
{
closed = 1;
nodes = (
(53,391,l),
(15,431,l),
(86,499,l),
(168,419,l),
(168,70,l),
(112,80,l),
(112,395,l),
(86,421,l)
);
},
{
closed = 1;
nodes = (
(231,421,l),
(158,340,l),
(120,374,l),
(231,500,l)
);
},
{
closed = 1;
nodes = (
(231,499,l),
(341,374,l),
(300,336,l),
(195,457,l)
);
}
);
width = 336;
},
{
layerId = "45694E59-AA00-4651-8C52-E54C12FC4B80";
shapes = (
{
attr = {
strokeWidth = 56;
};
closed = 0;
nodes = (
(9,430,l),
(50,466,l),
(98,419,l),
(98,346,l),
(98,64,l),
(146,33,l),
(146,33,o),
(180,73,o),
(180,73,c)
);
},
{
attr = {
strokeWidth = 56;
};
closed = 0;
nodes = (
(98,364,l),
(214,471,l),
(289,391,l)
);
},
{
attr = {
strokeWidth = 56;
};
closed = 0;
nodes = (
(72,80,l),
(107,58,l)
);
}
);
width = 310;
},
{
associatedMasterId = "4F3E9B02-E456-4626-B03D-CB5849416C61";
layerId = "EB2D1758-B645-4E86-B9FE-31F1EFB63E89";
name = "11 Feb 26 at 23:05";
shapes = (
{
closed = 1;
nodes = (
(96,76,l),
(131,124,l),
(191,73,l),
(222,105,l),
(262,67,l),
(197,-1,l)
);
},
{
closed = 1;
nodes = (
(53,391,l),
(15,431,l),
(86,499,l),
(168,419,l),
(168,70,l),
(112,80,l),
(112,395,l),
(86,421,l)
);
},
{
closed = 1;
nodes = (
(231,421,l),
(158,340,l),
(120,374,l),
(231,500,l)
);
},
{
closed = 1;
nodes = (
(231,499,l),
(341,374,l),
(300,336,l),
(195,457,l)
);
}
);
width = 336;
},
{
associatedMasterId = "4F3E9B02-E456-4626-B03D-CB5849416C61";
layerId = "AB575574-DF39-45CC-A35C-95682F10E8E7";
name = "11 Feb 26 at 23:05";
shapes = (
{
attr = {
strokeWidth = 56;
};
closed = 0;
nodes = (
(9,430,l),
(50,466,l),
(98,419,l),
(98,346,l),
(98,64,l),
(146,33,l),
(146,33,o),
(180,73,o),
(180,73,c)
);
},
{
attr = {
strokeWidth = 56;
};
closed = 0;
nodes = (
(98,364,l),
(214,471,l),
(289,391,l)
);
},
{
attr = {
strokeWidth = 56;
};
closed = 0;
nodes = (
(72,80,l),
(107,58,l)
);
}
);
width = 310;
},
{
associatedMasterId = "4F3E9B02-E456-4626-B03D-CB5849416C61";
layerId = "A4D356DF-6E3C-4CEB-B937-D0B23C00A529";
name = "11 Feb 26 at 23:22";
shapes = (
{
attr = {
strokeWidth = 56;
};
closed = 0;
nodes = (
(23,430,l),
(64,466,l),
(112,419,l),
(112,346,l),
(112,64,l),
(160,33,l),
(160,33,o),
(224,73,o),
(224,73,c)
);
},
{
attr = {
strokeWidth = 56;
};
closed = 0;
nodes = (
(246,300,l)
);
},
{
attr = {
strokeWidth = 56;
};
closed = 0;
nodes = (
(112,354,l),
(246,446,l),
(246,300,l)
);
},
{
attr = {
strokeWidth = 56;
};
closed = 0;
nodes = (
(83,82,l),
(121,58,l)
);
}
);
width = 294;
},
{
associatedMasterId = "4F3E9B02-E456-4626-B03D-CB5849416C61";
layerId = "FAD95719-8F48-4CBD-9F42-E00553402694";
name = "11 Feb 26 at 23:37";
shapes = (
{
attr = {
strokeWidth = 56;
};
closed = 0;
nodes = (
(92,82,l),
(92,391,l),
(181,470,l),
(294,391,l),
(343,439,l)
);
},
{
attr = {
strokeWidth = 56;
};
closed = 0;
nodes = (
(333,128,l),
(191,30,l),
(82,101,l),
(51,76,l)
);
},
{
attr = {
strokeWidth = 56;
};
closed = 0;
nodes = (
(3,430,l),
(44,466,l),
(92,419,l),
(92,346,l)
);
}
);
width = 308;
},
{
associatedMasterId = "4F3E9B02-E456-4626-B03D-CB5849416C61";
layerId = "92A44C4E-EF4D-4EED-9BB7-259A568F2528";
name = "11 Feb 26 at 23:38";
shapes = (
{
attr = {
strokeWidth = 56;
};
closed = 0;
nodes = (
(23,430,l),
(64,466,l),
(112,419,l),
(112,356,l),
(112,64,l)
);
},
{
attr = {
strokeWidth = 56;
};
closed = 0;
nodes = (
(260,382,l)
);
},
{
attr = {
strokeWidth = 56;
};
closed = 0;
nodes = (
(268,76,l),
(201,30,l),
(92,101,l),
(61,76,l)
);
},
{
attr = {
strokeWidth = 56;
};
closed = 0;
nodes = (
(112,82,l),
(112,391,l),
(201,470,l),
(284,391,l)
);
}
);
width = 308;
},
{
layerId = "4F3E9B02-E456-4626-B03D-CB5849416C61";
name = Regular;
shapes = (
{
attr = {
strokeWidth = 56;
};
closed = 0;
nodes = (
(23,430,l),
(64,466,l),
(112,419,l),
(112,356,l),
(112,64,l),
(160,33,l),
(160,33,o),
(234,103,o),
(234,103,c)
);
},
{
attr = {
strokeWidth = 56;
};
closed = 0;
nodes = (
(287,387,l)
);
},
{
attr = {
strokeWidth = 56;
};
closed = 0;
nodes = (
(112,354,l),
(226,466,l),
(287,397,l)
);
},
{
attr = {
strokeWidth = 56;
};
closed = 0;
nodes = (
(83,82,l),
(121,58,l)
);
}
);
width = 308;
}
);
unicode = 114;
},
{
color = 3;
glyphname = b;
lastChange = "2026-02-11 19:31:23 +0000";
layers = (
{
layerId = "BB1E0B62-8800-4897-8DA4-2FB7C2EA9BE3";
shapes = (
{
attr = {
strokeWidth = 56;
};
closed = 0;
nodes = (
(9,626,l),
(50,662,l),
(98,615,l),
(98,346,l),
(98,83,l)
);
},
{
attr = {
strokeWidth = 56;
};
closed = 0;
nodes = (
(322,385,l),
(322,85,l)
);
},
{
attr = {
strokeWidth = 56;
};
closed = 0;
nodes = (
(98,364,l),
(244,466,l),
(322,385,l),
(353,410,l)
);
},
{
attr = {
strokeWidth = 56;
};
closed = 0;
nodes = (
(59,99,l),
(241,29,l),
(332,107,l)
);
}
);
width = 411;
},
{
layerId = "ABEE408E-F1F2-48F1-B0CF-1BE6048DE736";
shapes = (
{
closed = 1;
nodes = (
(126,365,l),
(311,500,l),
(406,394,l),
(406,99,l),
(350,99,l),
(350,372,l),
(307,420,l),
(161,317,l)
);
},
{
closed = 1;
nodes = (
(392,364,l),
(356,406,l),
(422,462,l),
(458,420,l)
);
},
{
closed = 1;
nodes = (
(406,99,l),
(282,0,l),
(96,91,l),
(121,143,l),
(277,65,l),
(364,136,l)
);
},
{
closed = 1;
nodes = (
(54,591,l),
(16,631,l),
(87,699,l),
(169,619,l),
(169,85,l),
(113,95,l),
(113,595,l),
(87,621,l)
);
}
);
width = 475;
},
{
layerId = "45694E59-AA00-4651-8C52-E54C12FC4B80";
shapes = (
{
attr = {
strokeWidth = 56;
};
closed = 0;
nodes = (
(9,626,l),
(50,662,l),
(98,615,l),
(98,346,l),
(98,83,l)
);
},
{
attr = {
strokeWidth = 56;
};
closed = 0;
nodes = (
(322,385,l),
(322,85,l)
);
},
{
attr = {
strokeWidth = 56;
};
closed = 0;
nodes = (
(98,364,l),
(244,466,l),
(322,385,l),
(353,410,l)
);
},
{
attr = {
strokeWidth = 56;
};
closed = 0;
nodes = (
(59,99,l),
(241,29,l),
(332,107,l)
);
}
);
width = 411;
},
{
associatedMasterId = "4F3E9B02-E456-4626-B03D-CB5849416C61";
layerId = "9EE0D5B9-A452-4B18-A15C-185D21D43438";
name = "12 Feb 26 at 00:39";
shapes = (
{
closed = 1;
nodes = (
(126,365,l),
(311,500,l),
(406,394,l),
(406,99,l),
(350,99,l),
(350,372,l),
(307,420,l),
(161,317,l)
);
},
{
closed = 1;
nodes = (
(392,364,l),
(356,406,l),
(422,462,l),
(458,420,l)
);
},
{
closed = 1;
nodes = (
(406,99,l),
(282,0,l),
(96,91,l),
(121,143,l),
(277,65,l),
(364,136,l)
);
},
{
closed = 1;
nodes = (
(54,591,l),
(16,631,l),
(87,699,l),
(169,619,l),
(169,85,l),
(113,95,l),
(113,595,l),
(87,621,l)
);
}
);
width = 475;
},
{
layerId = "4F3E9B02-E456-4626-B03D-CB5849416C61";
name = Regular;
shapes = (
{
attr = {
strokeWidth = 56;
};
closed = 0;
nodes = (
(112,82,l),
(225,29,l),
(336,107,l),
(336,406,l),
(234,472,l),
(112,391,l),
(112,82,l),
(76,52,l)
);
},
{
attr = {
strokeWidth = 56;
};
closed = 0;
nodes = (
(23,619,l),
(64,655,l),
(112,618,l),
(112,346,l)
);
},
{
attr = {
strokeWidth = 56;
};
closed = 0;
nodes = (
(123,614,l),
(154,639,l)
);
}
);
width = 420;
},
{
associatedMasterId = "4F3E9B02-E456-4626-B03D-CB5849416C61";
layerId = "37DBEEDD-D04C-4316-A7C7-8779CBC0678A";
name = "12 Feb 26 at 00:39";
shapes = (
{
attr = {
strokeWidth = 56;
};
closed = 0;
nodes = (
(9,626,l),
(50,662,l),
(98,615,l),
(98,346,l),
(98,83,l)
);
},
{
attr = {
strokeWidth = 56;
};
closed = 0;
nodes = (
(322,385,l),
(322,85,l)
);
},
{
attr = {
strokeWidth = 56;
};
closed = 0;
nodes = (
(98,364,l),
(244,466,l),
(322,385,l),
(353,410,l)
);
},
{
attr = {
strokeWidth = 56;
};
closed = 0;
nodes = (
(59,99,l),
(241,29,l),
(332,107,l)
);
}
);
width = 411;
}
);
unicode = 98;
},
{
color = 3;
glyphname = q;
lastChange = "2026-02-11 19:31:49 +0000";
layers = (
{
layerId = "BB1E0B62-8800-4897-8DA4-2FB7C2EA9BE3";
shapes = (
{
attr = {
strokeWidth = 56;
};
closed = 0;
nodes = (
(340,410,l),
(309,385,l),
(309,385,o),
(190,469,o),
(190,469,c),
(84,391,l),
(84,82,l)
);
},
{
attr = {
strokeWidth = 56;
};
closed = 0;
nodes = (
(309,385,l),
(309,-73,l),
(357,-104,l),
(391,-64,l)
);
},
{
attr = {
strokeWidth = 56;
};
closed = 0;
nodes = (
(309,385,l),
(340,410,l)
);
},
{
attr = {
strokeWidth = 56;
};
closed = 0;
nodes = (
(309,120,l),
(203,33,l),
(43,115,l)
);
}
);
width = 393;
},
{
guides = (
{
pos = (0,-113);
},
{
pos = (0,-127);
}
);
layerId = "ABEE408E-F1F2-48F1-B0CF-1BE6048DE736";
shapes = (
{
closed = 1;
nodes = (
(167,502,l),
(323,394,l),
(323,99,l),
(267,99,l),
(267,368,l),
(124,469,l)
);
},
{
closed = 1;
nodes = (
(309,364,l),
(273,406,l),
(339,462,l),
(375,420,l)
);
},
{
closed = 1;
nodes = (
(323,99,l),
(184,0,l),
(13,91,l),
(38,143,l),
(184,66,l),
(281,136,l)
);
},
{
closed = 1;
nodes = (
(167,502,l),
(188,446,l),
(98,380,l),
(99,70,l),
(42,91,l),
(42,408,l)
);
},
{
closed = 1;
nodes = (
(267,-48,l),
(267,119,l),
(323,119,l),
(323,-35,l)
);
},
{
closed = 1;
nodes = (
(267,-48,l),
(302,0,l),
(362,-51,l),
(393,-19,l),
(433,-57,l),
(368,-125,l)
);
}
);
width = 435;
},
{
layerId = "45694E59-AA00-4651-8C52-E54C12FC4B80";
shapes = (
{
attr = {
strokeWidth = 56;
};
closed = 0;
nodes = (
(340,410,l),
(309,385,l),
(309,385,o),
(190,469,o),
(190,469,c),
(84,391,l),
(84,82,l)
);
},
{
attr = {
strokeWidth = 56;
};
closed = 0;
nodes = (
(309,385,l),
(309,-73,l),
(357,-104,l),
(391,-64,l)
);
},
{
attr = {
strokeWidth = 56;
};
closed = 0;
nodes = (
(309,385,l),
(340,410,l)
);
},
{
attr = {
strokeWidth = 56;
};
closed = 0;
nodes = (
(309,120,l),
(203,33,l),
(43,115,l)
);
}
);
width = 393;
},
{
associatedMasterId = "4F3E9B02-E456-4626-B03D-CB5849416C61";
guides = (
{
pos = (0,-113);
},
{
pos = (0,-127);
}
);
layerId = "11414220-2EC4-48FA-AC71-EF3AAC9C7209";
name = "12 Feb 26 at 00:59";
shapes = (
{
closed = 1;
nodes = (
(167,502,l),
(323,394,l),
(323,99,l),
(267,99,l),
(267,368,l),
(124,469,l)
);
},
{
closed = 1;
nodes = (
(309,364,l),
(273,406,l),
(339,462,l),
(375,420,l)
);
},
{
closed = 1;
nodes = (
(323,99,l),
(184,0,l),
(13,91,l),
(38,143,l),
(184,66,l),
(281,136,l)
);
},
{
closed = 1;
nodes = (
(167,502,l),
(188,446,l),
(98,380,l),
(99,70,l),
(42,91,l),
(42,408,l)
);
},
{
closed = 1;
nodes = (
(267,-48,l),
(267,119,l),
(323,119,l),
(323,-35,l)
);
},
{
closed = 1;
nodes = (
(267,-48,l),
(302,0,l),
(362,-51,l),
(393,-19,l),
(433,-57,l),
(368,-125,l)
);
}
);
width = 435;
},
{
layerId = "4F3E9B02-E456-4626-B03D-CB5849416C61";
name = Regular;
shapes = (
{
attr = {
strokeWidth = 56;
};
closed = 0;
nodes = (
(322,419,l),
(209,472,l),
(98,394,l),
(98,95,l),
(200,29,l),
(322,110,l),
(322,419,l),
(358,449,l)
);
},
{
attr = {
strokeWidth = 56;
};
closed = 0;
nodes = (
(421,-68,l),
(380,-104,l),
(322,-67,l),
(322,155,l)
);
},
{
attr = {
strokeWidth = 56;
};
closed = 0;
nodes = (
(311,-63,l),
(280,-98,l)
);
}
);
width = 420;
},
{
associatedMasterId = "4F3E9B02-E456-4626-B03D-CB5849416C61";
layerId = "DDC90F4C-3C7E-47A1-8402-C3A2FD2D96CA";
name = "12 Feb 26 at 00:59";
shapes = (
{
attr = {
strokeWidth = 56;
};
closed = 0;
nodes = (
(340,410,l),
(309,385,l),
(309,385,o),
(190,469,o),
(190,469,c),
(84,391,l),
(84,82,l)
);
},
{
attr = {
strokeWidth = 56;
};
closed = 0;
nodes = (
(309,385,l),
(309,-73,l),
(357,-104,l),
(391,-64,l)
);
},
{
attr = {
strokeWidth = 56;
};
closed = 0;
nodes = (
(309,385,l),
(340,410,l)
);
},
{
attr = {
strokeWidth = 56;
};
closed = 0;
nodes = (
(309,120,l),
(203,33,l),
(43,115,l)
);
}
);
width = 393;
}
);
unicode = 113;
},
{
glyphname = d;
lastChange = "2026-02-11 18:50:40 +0000";
layers = (
{
layerId = "BB1E0B62-8800-4897-8DA4-2FB7C2EA9BE3";
shapes = (
{
attr = {
strokeWidth = 56;
};
closed = 0;
nodes = (
(320,385,l),
(351,410,l)
);
},
{
attr = {
strokeWidth = 56;
};
closed = 0;
nodes = (
(55,113,l),
(228,32,l),
(320,120,l),
(320,385,l)
);
},
{
attr = {
strokeWidth = 56;
};
closed = 0;
nodes = (
(201,469,l),
(95,391,l),
(95,82,l)
);
},
{
attr = {
strokeWidth = 56;
};
closed = 0;
nodes = (
(76,681,l),
(61,665,o),
(46,649,o),
(31,633,c),
(31,633,o),
(320,385,o),
(320,385,c),
(351,410,l)
);
}
);
width = 399;
},
{
layerId = "ABEE408E-F1F2-48F1-B0CF-1BE6048DE736";
shapes = (
{
closed = 1;
nodes = (
(72,652,l),
(366,394,l),
(366,99,l),
(310,99,l),
(310,372,l),
(28,612,l)
);
},
{
closed = 1;
nodes = (
(352,364,l),
(316,406,l),
(382,462,l),
(418,420,l)
);
},
{
closed = 1;
nodes = (
(366,99,l),
(242,0,l),
(56,91,l),
(81,143,l),
(237,65,l),
(324,136,l)
);
},
{
closed = 1;
nodes = (
(210,502,l),
(231,446,l),
(141,380,l),
(142,70,l),
(85,91,l),
(85,408,l)
);
},
{
attr = {
strokeWidth = 56;
};
closed = 0;
nodes = (
(95,680,l),
(32,610,l)
);
}
);
width = 433;
},
{
layerId = "45694E59-AA00-4651-8C52-E54C12FC4B80";
shapes = (
{
attr = {
strokeWidth = 56;
};
closed = 0;
nodes = (
(320,385,l),
(351,410,l)
);
},
{
attr = {
strokeWidth = 56;
};
closed = 0;
nodes = (
(55,113,l),
(228,32,l),
(320,120,l),
(320,385,l)
);
},
{
attr = {
strokeWidth = 56;
};
closed = 0;
nodes = (
(201,469,l),
(95,391,l),
(95,82,l)
);
},
{
attr = {
strokeWidth = 56;
};
closed = 0;
nodes = (
(76,681,l),
(61,665,o),
(46,649,o),
(31,633,c),
(31,633,o),
(320,385,o),
(320,385,c),
(351,410,l)
);
}
);
width = 399;
},
{
associatedMasterId = "4F3E9B02-E456-4626-B03D-CB5849416C61";
layerId = "1550DEEA-2945-4E83-92B2-AF7B786218F0";
name = "11 Feb 26 at 23:43";
shapes = (
{
closed = 1;
nodes = (
(72,652,l),
(366,394,l),
(366,99,l),
(310,99,l),
(310,372,l),
(28,612,l)
);
},
{
closed = 1;
nodes = (
(352,364,l),
(316,406,l),
(382,462,l),
(418,420,l)
);
},
{
closed = 1;
nodes = (
(366,99,l),
(242,0,l),
(56,91,l),
(81,143,l),
(237,65,l),
(324,136,l)
);
},
{
closed = 1;
nodes = (
(210,502,l),
(231,446,l),
(141,380,l),
(142,70,l),
(85,91,l),
(85,408,l)
);
},
{
attr = {
strokeWidth = 56;
};
closed = 0;
nodes = (
(95,680,l),
(32,610,l)
);
}
);
width = 433;
},
{
associatedMasterId = "4F3E9B02-E456-4626-B03D-CB5849416C61";
layerId = "EB1C3375-8D5E-44D2-8022-C5CB5423C948";
name = "11 Feb 26 at 23:44";
shapes = (
{
attr = {
strokeWidth = 56;
};
closed = 0;
nodes = (
(323,385,l),
(354,410,l)
);
},
{
attr = {
strokeWidth = 56;
};
closed = 0;
nodes = (
(58,113,l),
(231,32,l),
(323,120,l),
(323,385,l)
);
},
{
attr = {
strokeWidth = 56;
};
closed = 0;
nodes = (
(204,469,l),
(98,391,l),
(98,82,l)
);
},
{
attr = {
strokeWidth = 56;
};
closed = 0;
nodes = (
(79,681,l),
(34,633,l),
(34,633,o),
(323,385,o),
(323,385,c),
(354,410,l)
);
}
);
visible = 1;
width = 420;
},
{
associatedMasterId = "4F3E9B02-E456-4626-B03D-CB5849416C61";
layerId = "4874F36B-636D-4561-A9F9-B39E859FC397";
name = "11 Feb 26 at 23:45";
shapes = (
{
attr = {
strokeWidth = 56;
};
closed = 0;
nodes = (
(323,385,l),
(354,410,l)
);
},
{
attr = {
strokeWidth = 56;
};
closed = 0;
nodes = (
(58,113,l),
(231,32,l),
(323,120,l),
(323,385,l)
);
},
{
attr = {
strokeWidth = 56;
};
closed = 0;
nodes = (
(204,469,l),
(98,391,l),
(98,82,l)
);
},
{
attr = {
strokeWidth = 56;
};
closed = 0;
nodes = (
(219,655,l),
(84,533,l),
(302,370,l),
(354,410,l)
);
}
);
width = 420;
},
{
layerId = "4F3E9B02-E456-4626-B03D-CB5849416C61";
name = Regular;
shapes = (
{
attr = {
strokeWidth = 56;
};
closed = 0;
nodes = (
(98,82,l),
(211,29,l),
(322,107,l),
(322,406,l),
(220,472,l),
(98,391,l),
(98,82,l),
(62,52,l)
);
},
{
attr = {
strokeWidth = 56;
};
closed = 0;
nodes = (
(169,620,l),
(107,570,l),
(107,548,l),
(322,406,l),
(363,441,l)
);
}
);
width = 420;
},
{
associatedMasterId = "4F3E9B02-E456-4626-B03D-CB5849416C61";
layerId = "AD6D284E-C468-49EB-B26F-375F0C8BE40F";
name = "12 Feb 26 at 00:07";
shapes = (
{
attr = {
strokeWidth = 56;
};
closed = 0;
nodes = (
(323,385,l),
(353,411,l)
);
},
{
attr = {
strokeWidth = 56;
};
closed = 0;
nodes = (
(57,113,l),
(200,32,l),
(322,120,l),
(322,385,l)
);
},
{
attr = {
strokeWidth = 56;
};
closed = 0;
nodes = (
(204,469,l),
(98,391,l),
(98,82,l)
);
},
{
attr = {
strokeWidth = 56;
};
closed = 0;
nodes = (
(153,617,l),
(108,569,l),
(108,569,o),
(323,385,o),
(323,385,c),
(364,420,l)
);
}
);
width = 406;
},
{
associatedMasterId = "4F3E9B02-E456-4626-B03D-CB5849416C61";
layerId = "924D8892-48CD-4842-8BB8-9469C18649C6";
name = "12 Feb 26 at 00:10";
shapes = (
{
attr = {
strokeWidth = 56;
};
closed = 0;
nodes = (
(98,82,l),
(211,29,l),
(322,107,l),
(322,406,l),
(210,472,l),
(98,391,l),
(98,82,l),
(62,52,l)
);
},
{
attr = {
strokeWidth = 56;
};
closed = 0;
nodes = (
(153,620,l),
(91,543,l),
(322,406,l),
(363,441,l)
);
}
);
width = 420;
}
);
unicode = 100;
},
{
glyphname = t;
lastChange = "2026-02-11 19:00:58 +0000";
layers = (
{
layerId = "BB1E0B62-8800-4897-8DA4-2FB7C2EA9BE3";
shapes = (
{
attr = {
strokeWidth = 56;
};
closed = 0;
nodes = (
(72,80,l),
(107,58,l)
);
},
{
attr = {
strokeWidth = 56;
};
closed = 0;
nodes = (
(180,73,l),
(180,73,o),
(146,33,o),
(146,33,c),
(98,64,l),
(98,628,l)
);
},
{
attr = {
strokeWidth = 56;
};
closed = 0;
nodes = (
(43,463,l),
(197,463,l)
);
}
);
width = 182;
},
{
layerId = "ABEE408E-F1F2-48F1-B0CF-1BE6048DE736";
shapes = (
{
attr = {
strokeWidth = 56;
};
closed = 0;
nodes = (
(72,80,l),
(107,58,l)
);
},
{
attr = {
strokeWidth = 56;
};
closed = 0;
nodes = (
(180,73,l),
(180,73,o),
(146,33,o),
(146,33,c),
(98,64,l),
(98,628,l)
);
},
{
attr = {
strokeWidth = 56;
};
closed = 0;
nodes = (
(43,463,l),
(197,463,l)
);
}
);
width = 361;
},
{
layerId = "45694E59-AA00-4651-8C52-E54C12FC4B80";
shapes = (
{
attr = {
strokeWidth = 56;
};
closed = 0;
nodes = (
(72,80,l),
(107,58,l)
);
},
{
attr = {
strokeWidth = 56;
};
closed = 0;
nodes = (
(180,73,l),
(180,73,o),
(146,33,o),
(146,33,c),
(98,64,l),
(98,628,l)
);
},
{
attr = {
strokeWidth = 56;
};
closed = 0;
nodes = (
(43,463,l),
(197,463,l)
);
}
);
width = 182;
},
{
associatedMasterId = "4F3E9B02-E456-4626-B03D-CB5849416C61";
layerId = "ACB0BFCF-6F26-481A-9BA1-281EF6750376";
name = "11 Feb 26 at 13:45";
shapes = (
{
closed = 0;
nodes = (
(126,70,l),
(70,80,l)
);
},
{
closed = 1;
nodes = (
(54,76,l),
(89,124,l),
(149,73,l),
(180,105,l),
(220,67,l),
(155,-1,l)
);
},
{
closed = 1;
nodes = (
(126,634,l),
(126,76,l),
(70,86,l),
(70,601,l)
);
},
{
closed = 1;
nodes = (
(9,448,l),
(36,500,l),
(217,500,l),
(191,448,l)
);
}
);
width = 361;
},
{
associatedMasterId = "4F3E9B02-E456-4626-B03D-CB5849416C61";
layerId = "0BBB793E-3B4D-4B2A-B3C1-A69BCBAA334E";
name = "11 Feb 26 at 13:59";
shapes = (
{
attr = {
strokeWidth = 56;
};
closed = 0;
nodes = (
(72,80,l),
(107,58,l)
);
},
{
attr = {
strokeWidth = 56;
};
closed = 0;
nodes = (
(180,73,l),
(180,73,o),
(146,33,o),
(146,33,c),
(98,64,l),
(98,628,l)
);
},
{
attr = {
strokeWidth = 56;
};
closed = 0;
nodes = (
(43,463,l),
(197,463,l)
);
}
);
width = 182;
},
{
associatedMasterId = "4F3E9B02-E456-4626-B03D-CB5849416C61";
layerId = "F4629086-A078-4FC3-8D9B-E06C6D6A8EAE";
name = "11 Feb 26 at 21:23";
shapes = (
{
attr = {
strokeWidth = 56;
};
closed = 0;
nodes = (
(52,100,l),
(107,68,l)
);
},
{
attr = {
strokeWidth = 56;
};
closed = 0;
nodes = (
(230,103,l),
(230,103,o),
(170,33,o),
(170,33,c),
(98,74,l),
(98,576,l),
(98,618,l)
);
},
{
attr = {
strokeWidth = 56;
};
closed = 0;
nodes = (
(23,463,l),
(238,463,l)
);
}
);
width = 266;
},
{
associatedMasterId = "4F3E9B02-E456-4626-B03D-CB5849416C61";
layerId = "802D7E76-863F-411E-9648-551598E88D5E";
name = "11 Feb 26 at 21:26";
shapes = (
{
attr = {
strokeWidth = 56;
};
closed = 0;
nodes = (
(76,92,l),
(173,18,l),
(294,110,l)
);
},
{
attr = {
strokeWidth = 56;
};
closed = 0;
nodes = (
(112,64,l),
(112,576,l),
(62,618,l)
);
},
{
attr = {
strokeWidth = 56;
};
closed = 0;
nodes = (
(37,463,l),
(280,463,l)
);
}
);
width = 308;
},
{
associatedMasterId = "4F3E9B02-E456-4626-B03D-CB5849416C61";
layerId = "84325592-5556-48B5-B8D1-175AEB7B6F11";
name = "11 Feb 26 at 23:38";
shapes = (
{
attr = {
strokeWidth = 56;
};
closed = 0;
nodes = (
(76,104,l),
(183,28,l),
(294,130,l)
);
},
{
attr = {
strokeWidth = 56;
};
closed = 0;
nodes = (
(112,78,l),
(112,576,l),
(64,623,l),
(23,587,l)
);
},
{
attr = {
strokeWidth = 56;
};
closed = 0;
nodes = (
(28,463,l),
(280,463,l)
);
},
{
attr = {
strokeWidth = 56;
};
closed = 0;
nodes = (
(123,572,l),
(164,607,l)
);
},
{
attr = {
strokeWidth = 56;
};
closed = 0;
nodes = (
(61,66,l),
(102,101,l)
);
}
);
width = 308;
},
{
layerId = "4F3E9B02-E456-4626-B03D-CB5849416C61";
name = Regular;
shapes = (
{
attr = {
strokeWidth = 56;
};
closed = 0;
nodes = (
(76,104,l),
(183,28,l),
(294,130,l)
);
},
{
attr = {
strokeWidth = 56;
};
closed = 0;
nodes = (
(112,78,l),
(112,576,l),
(62,618,l)
);
},
{
attr = {
strokeWidth = 56;
};
closed = 0;
nodes = (
(28,463,l),
(280,463,l)
);
}
);
width = 308;
}
);
unicode = 116;
},
{
glyphname = g;
lastChange = "2026-02-11 17:54:41 +0000";
layers = (
{
layerId = "BB1E0B62-8800-4897-8DA4-2FB7C2EA9BE3";
shapes = (
{
attr = {
strokeWidth = 56;
};
closed = 0;
nodes = (
(340,410,l),
(309,385,l),
(309,385,o),
(190,469,o),
(190,469,c),
(84,391,l),
(84,82,l)
);
},
{
attr = {
strokeWidth = 56;
};
closed = 0;
nodes = (
(309,385,l),
(340,410,l)
);
},
{
attr = {
strokeWidth = 56;
};
closed = 0;
nodes = (
(309,120,l),
(203,33,l),
(43,115,l)
);
},
{
attr = {
strokeWidth = 56;
};
closed = 0;
nodes = (
(76,-38,l),
(198,-108,l),
(309,-38,l),
(309,93,l),
(309,385,l)
);
}
);
width = 388;
},
{
layerId = "ABEE408E-F1F2-48F1-B0CF-1BE6048DE736";
shapes = (
{
closed = 1;
nodes = (
(167,502,l),
(323,394,l),
(323,99,l),
(267,99,l),
(267,368,l),
(124,469,l)
);
},
{
closed = 1;
nodes = (
(309,364,l),
(273,406,l),
(339,462,l),
(375,420,l)
);
},
{
closed = 1;
nodes = (
(323,99,l),
(184,0,l),
(13,91,l),
(38,143,l),
(184,66,l),
(281,136,l)
);
},
{
closed = 1;
nodes = (
(167,502,l),
(188,446,l),
(98,380,l),
(99,70,l),
(42,91,l),
(42,408,l)
);
},
{
closed = 1;
nodes = (
(323,17,l),
(323,-64,l),
(257,-75,o),
(244,-86,o),
(188,-125,c),
(35,-56,l),
(59,4,l),
(177,-58,l),
(238,-30,o),
(253,-12,o),
(267,-9,c),
(267,17,l)
);
},
{
closed = 1;
nodes = (
(267,-10,l),
(267,119,l),
(323,119,l),
(323,-10,l)
);
}
);
width = 393;
},
{
layerId = "45694E59-AA00-4651-8C52-E54C12FC4B80";
shapes = (
{
attr = {
strokeWidth = 56;
};
closed = 0;
nodes = (
(340,410,l),
(309,385,l),
(309,385,o),
(190,469,o),
(190,469,c),
(84,391,l),
(84,82,l)
);
},
{
attr = {
strokeWidth = 56;
};
closed = 0;
nodes = (
(309,385,l),
(340,410,l)
);
},
{
attr = {
strokeWidth = 56;
};
closed = 0;
nodes = (
(309,120,l),
(203,33,l),
(43,115,l)
);
},
{
attr = {
strokeWidth = 56;
};
closed = 0;
nodes = (
(76,-38,l),
(198,-108,l),
(309,-38,l),
(309,93,l),
(309,385,l)
);
}
);
width = 388;
},
{
associatedMasterId = "4F3E9B02-E456-4626-B03D-CB5849416C61";
layerId = "5876E70C-691B-4286-84B3-1B3557E47A02";
name = "11 Feb 26 at 13:49";
shapes = (
{
closed = 1;
nodes = (
(167,502,l),
(323,394,l),
(323,99,l),
(267,99,l),
(267,368,l),
(124,469,l)
);
},
{
closed = 1;
nodes = (
(309,364,l),
(273,406,l),
(339,462,l),
(375,420,l)
);
},
{
closed = 1;
nodes = (
(323,99,l),
(184,0,l),
(13,91,l),
(38,143,l),
(184,66,l),
(281,136,l)
);
},
{
closed = 1;
nodes = (
(167,502,l),
(188,446,l),
(98,380,l),
(99,70,l),
(42,91,l),
(42,408,l)
);
},
{
closed = 1;
nodes = (
(323,17,l),
(323,-64,l),
(257,-75,o),
(244,-86,o),
(188,-125,c),
(35,-56,l),
(59,4,l),
(177,-58,l),
(238,-30,o),
(253,-12,o),
(267,-9,c),
(267,17,l)
);
},
{
closed = 1;
nodes = (
(267,-10,l),
(267,119,l),
(323,119,l),
(323,-10,l)
);
}
);
width = 393;
},
{
layerId = "4F3E9B02-E456-4626-B03D-CB5849416C61";
name = Regular;
shapes = (
{
attr = {
strokeWidth = 56;
};
closed = 0;
nodes = (
(322,385,l),
(322,385,o),
(204,469,o),
(204,469,c),
(98,391,l),
(98,82,l)
);
},
{
attr = {
strokeWidth = 56;
};
closed = 0;
nodes = (
(322,120,l),
(177,33,l),
(57,115,l)
);
},
{
attr = {
strokeWidth = 56;
};
closed = 0;
nodes = (
(79,-38,l),
(191,-108,l),
(322,-38,l),
(322,93,l),
(322,415,l),
(373,460,l)
);
}
);
width = 420;
},
{
associatedMasterId = "4F3E9B02-E456-4626-B03D-CB5849416C61";
layerId = "F7FC58B0-900E-4DAB-B400-C7FD578A15A2";
name = "11 Feb 26 at 20:01";
shapes = (
{
attr = {
strokeWidth = 56;
};
closed = 0;
nodes = (
(340,410,l),
(309,385,l),
(309,385,o),
(190,469,o),
(190,469,c),
(84,391,l),
(84,82,l)
);
},
{
attr = {
strokeWidth = 56;
};
closed = 0;
nodes = (
(309,385,l),
(340,410,l)
);
},
{
attr = {
strokeWidth = 56;
};
closed = 0;
nodes = (
(309,120,l),
(203,33,l),
(43,115,l)
);
},
{
attr = {
strokeWidth = 56;
};
closed = 0;
nodes = (
(76,-38,l),
(198,-108,l),
(309,-38,l),
(309,93,l),
(309,385,l)
);
}
);
width = 392;
},
{
associatedMasterId = "4F3E9B02-E456-4626-B03D-CB5849416C61";
layerId = "BE10242E-8111-454D-944C-E13940BCD943";
name = "11 Feb 26 at 23:02";
shapes = (
{
attr = {
strokeWidth = 56;
};
closed = 0;
nodes = (
(309,385,l),
(309,385,o),
(190,469,o),
(190,469,c),
(84,391,l),
(84,82,l)
);
},
{
attr = {
strokeWidth = 56;
};
closed = 0;
nodes = (
(309,120,l),
(203,33,l),
(43,115,l)
);
},
{
attr = {
strokeWidth = 56;
};
closed = 0;
nodes = (
(76,-38,l),
(198,-108,l),
(309,-38,l),
(309,93,l),
(309,415,l),
(360,460,l)
);
}
);
width = 406;
}
);
unicode = 103;
},
{
glyphname = a;
lastChange = "2026-02-11 17:51:41 +0000";
layers = (
{
layerId = "BB1E0B62-8800-4897-8DA4-2FB7C2EA9BE3";
shapes = (
{
attr = {
strokeWidth = 56;
};
closed = 0;
nodes = (
(258,213,l),
(143,270,o),
(115,299,o),
(67,367,c),
(178,471,l),
(178,471,o),
(256,406,o),
(290,384,c),
(290,64,l),
(338,33,l),
(372,73,l)
);
},
{
attr = {
strokeWidth = 56;
};
closed = 0;
nodes = (
(138,278,l),
(65,223,l),
(65,75,l),
(158,28,l),
(280,79,l)
);
},
{
attr = {
strokeWidth = 56;
};
closed = 0;
nodes = (
(300,388,l),
(331,413,l)
);
}
);
width = 374;
},
{
layerId = "ABEE408E-F1F2-48F1-B0CF-1BE6048DE736";
shapes = (
{
attr = {
strokeWidth = 56;
};
closed = 0;
nodes = (
(258,213,l),
(143,270,o),
(115,299,o),
(67,367,c),
(178,471,l),
(178,471,o),
(256,406,o),
(290,384,c),
(290,64,l),
(338,33,l),
(372,73,l)
);
},
{
attr = {
strokeWidth = 56;
};
closed = 0;
nodes = (
(138,278,l),
(65,223,l),
(65,75,l),
(158,28,l),
(280,79,l)
);
},
{
attr = {
strokeWidth = 56;
};
closed = 0;
nodes = (
(300,388,l),
(331,413,l)
);
}
);
width = 374;
},
{
layerId = "45694E59-AA00-4651-8C52-E54C12FC4B80";
shapes = (
{
attr = {
strokeWidth = 56;
};
closed = 0;
nodes = (
(258,213,l),
(143,270,o),
(115,299,o),
(67,367,c),
(178,471,l),
(178,471,o),
(256,406,o),
(290,384,c),
(290,64,l),
(338,33,l),
(372,73,l)
);
},
{
attr = {
strokeWidth = 56;
};
closed = 0;
nodes = (
(138,278,l),
(65,223,l),
(65,75,l),
(158,28,l),
(280,79,l)
);
},
{
attr = {
strokeWidth = 56;
};
closed = 0;
nodes = (
(300,388,l),
(331,413,l)
);
}
);
width = 374;
},
{
associatedMasterId = "4F3E9B02-E456-4626-B03D-CB5849416C61";
layerId = "24FC5DE9-2E59-4E9C-B340-83AA9C1918D4";
name = "11 Feb 26 at 13:48";
width = 600;
},
{
layerId = "4F3E9B02-E456-4626-B03D-CB5849416C61";
name = Regular;
shapes = (
{
attr = {
strokeWidth = 56;
};
closed = 0;
nodes = (
(290,233,l),
(172,270,o),
(143,299,o),
(84,367,c),
(171,471,l),
(171,471,o),
(270,419,o),
(308,394,c),
(308,64,l),
(356,33,l),
(390,73,l)
);
},
{
attr = {
strokeWidth = 56;
};
closed = 0;
nodes = (
(180,268,l),
(84,203,l),
(84,75,l),
(163,28,l),
(298,89,l)
);
},
{
attr = {
strokeWidth = 56;
};
closed = 0;
nodes = (
(318,398,l),
(349,423,l)
);
}
);
width = 420;
},
{
associatedMasterId = "4F3E9B02-E456-4626-B03D-CB5849416C61";
layerId = "A2CABF39-4451-4BB8-BF86-FF213F4635F5";
name = "11 Feb 26 at 13:55";
shapes = (
{
attr = {
strokeWidth = 56;
};
closed = 0;
nodes = (
(142,278,l),
(69,223,l),
(69,75,l),
(162,28,l),
(284,79,l)
);
},
{
attr = {
strokeWidth = 56;
};
closed = 0;
nodes = (
(304,401,l),
(335,426,l)
);
},
{
attr = {
strokeWidth = 56;
};
closed = 0;
nodes = (
(285,385,l),
(285,64,l),
(333,33,l),
(367,73,l)
);
},
{
attr = {
strokeWidth = 56;
};
closed = 0;
nodes = (
(262,213,l),
(141,269,o),
(111,297,o),
(61,364,c),
(207,466,l),
(285,385,l),
(316,410,l)
);
}
);
width = 392;
},
{
associatedMasterId = "4F3E9B02-E456-4626-B03D-CB5849416C61";
layerId = "AF6D5609-3657-489C-B108-49A04DCCD4E1";
name = "11 Feb 26 at 23:17";
shapes = (
{
attr = {
strokeWidth = 56;
};
closed = 0;
nodes = (
(290,213,l),
(175,270,o),
(147,299,o),
(99,367,c),
(210,471,l),
(210,471,o),
(288,406,o),
(322,384,c),
(322,64,l),
(370,33,l),
(404,73,l)
);
},
{
attr = {
strokeWidth = 56;
};
closed = 0;
nodes = (
(170,278,l),
(97,223,l),
(97,75,l),
(190,28,l),
(312,79,l)
);
},
{
attr = {
strokeWidth = 56;
};
closed = 0;
nodes = (
(332,388,l),
(363,413,l)
);
}
);
width = 434;
}
);
unicode = 97;
},
{
glyphname = c;
lastChange = "2026-02-11 18:43:15 +0000";
layers = (
{
layerId = "BB1E0B62-8800-4897-8DA4-2FB7C2EA9BE3";
shapes = (
{
attr = {
strokeWidth = 56;
};
closed = 0;
nodes = (
(92,82,l),
(92,391,l),
(181,470,l),
(303,385,l),
(336,412,l)
);
},
{
attr = {
strokeWidth = 56;
};
closed = 0;
nodes = (
(343,128,l),
(251,30,l),
(51,115,l)
);
}
);
width = 374;
},
{
layerId = "ABEE408E-F1F2-48F1-B0CF-1BE6048DE736";
shapes = (
{
attr = {
strokeWidth = 56;
};
closed = 0;
nodes = (
(343,437,l),
(286,383,l),
(168,464,l),
(84,387,l),
(84,69,l),
(168,62,o),
(245,30,o),
(245,30,c),
(339,131,l)
);
},
{
attr = {
strokeWidth = 56;
};
closed = 0;
nodes = (
(64,70,l),
(9,60,l)
);
}
);
width = 380;
},
{
layerId = "45694E59-AA00-4651-8C52-E54C12FC4B80";
shapes = (
{
attr = {
strokeWidth = 56;
};
closed = 0;
nodes = (
(92,82,l),
(92,391,l),
(181,470,l),
(303,385,l),
(336,412,l)
);
},
{
attr = {
strokeWidth = 56;
};
closed = 0;
nodes = (
(343,128,l),
(251,30,l),
(51,115,l)
);
}
);
width = 374;
},
{
associatedMasterId = "4F3E9B02-E456-4626-B03D-CB5849416C61";
layerId = "AFFE9672-D25F-4AF4-8DAB-AE1C974905AE";
name = "11 Feb 26 at 19:52";
shapes = (
{
attr = {
strokeWidth = 56;
};
closed = 0;
nodes = (
(92,82,l),
(92,391,l),
(181,470,l),
(303,385,l),
(336,412,l)
);
},
{
attr = {
strokeWidth = 56;
};
closed = 0;
nodes = (
(343,128,l),
(251,30,l),
(51,115,l)
);
}
);
width = 364;
},
{
associatedMasterId = "4F3E9B02-E456-4626-B03D-CB5849416C61";
layerId = "069D64B7-C216-4F5D-9A7E-BBEB8012D1BF";
name = "11 Feb 26 at 19:53";
shapes = (
{
attr = {
strokeWidth = 56;
};
closed = 0;
nodes = (
(343,437,l),
(286,383,l),
(168,464,l),
(84,387,l),
(84,69,l),
(168,62,o),
(245,30,o),
(245,30,c),
(339,131,l)
);
},
{
attr = {
strokeWidth = 56;
};
closed = 0;
nodes = (
(64,70,l),
(9,60,l)
);
}
);
width = 380;
},
{
layerId = "4F3E9B02-E456-4626-B03D-CB5849416C61";
name = Regular;
shapes = (
{
attr = {
strokeWidth = 56;
};
closed = 0;
nodes = (
(92,92,l),
(92,391,l),
(191,470,l),
(294,391,l),
(333,429,l)
);
},
{
attr = {
strokeWidth = 56;
};
closed = 0;
nodes = (
(347,148,l),
(201,30,l),
(51,115,l)
);
}
);
width = 378;
}
);
unicode = 99;
},
{
glyphname = e;
lastChange = "2026-02-11 19:26:55 +0000";
layers = (
{
layerId = "BB1E0B62-8800-4897-8DA4-2FB7C2EA9BE3";
shapes = (
{
attr = {
strokeWidth = 56;
};
closed = 0;
nodes = (
(92,69,l),
(92,387,l),
(213,464,l),
(305,345,l),
(100,227,l)
);
},
{
attr = {
strokeWidth = 56;
};
closed = 0;
nodes = (
(341,128,l),
(212,30,l),
(49,83,l)
);
}
);
width = 358;
},
{
layerId = "ABEE408E-F1F2-48F1-B0CF-1BE6048DE736";
shapes = (
{
attr = {
strokeWidth = 56;
};
closed = 0;
nodes = (
(325,144,l),
(205,32,l),
(205,32,o),
(168,62,o),
(84,69,c),
(84,387,l),
(205,464,l),
(289,354,l),
(84,241,l)
);
},
{
attr = {
strokeWidth = 56;
};
closed = 0;
nodes = (
(64,70,l),
(43,67,o),
(22,65,o),
(9,60,c)
);
}
);
width = 350;
},
{
layerId = "45694E59-AA00-4651-8C52-E54C12FC4B80";
shapes = (
{
attr = {
strokeWidth = 56;
};
closed = 0;
nodes = (
(92,69,l),
(92,387,l),
(213,464,l),
(305,345,l),
(100,227,l)
);
},
{
attr = {
strokeWidth = 56;
};
closed = 0;
nodes = (
(341,128,l),
(212,30,l),
(49,83,l)
);
}
);
width = 358;
},
{
associatedMasterId = "4F3E9B02-E456-4626-B03D-CB5849416C61";
layerId = "D8A7A850-F632-437E-A54D-775D5F6603C3";
name = "11 Feb 26 at 13:46";
shapes = (
{
attr = {
strokeWidth = 56;
};
closed = 0;
nodes = (
(325,144,l),
(205,32,l),
(205,32,o),
(168,62,o),
(84,69,c),
(84,387,l),
(205,464,l),
(289,354,l),
(84,241,l)
);
},
{
attr = {
strokeWidth = 56;
};
closed = 0;
nodes = (
(64,70,l),
(43,67,o),
(22,65,o),
(9,60,cs)
);
}
);
width = 350;
},
{
associatedMasterId = "4F3E9B02-E456-4626-B03D-CB5849416C61";
layerId = "A0A6A39E-EFC3-4390-9757-5CC283A8A97C";
name = "11 Feb 26 at 14:05";
shapes = (
{
attr = {
strokeWidth = 56;
};
closed = 0;
nodes = (
(98,69,l),
(98,387,l),
(219,464,l),
(311,345,l),
(106,227,l)
);
},
{
attr = {
strokeWidth = 56;
};
closed = 0;
nodes = (
(347,128,l),
(218,30,l),
(60,83,l)
);
}
);
width = 378;
},
{
associatedMasterId = "4F3E9B02-E456-4626-B03D-CB5849416C61";
layerId = "0B04CDED-BE44-465B-B715-4010462233AC";
name = "11 Feb 26 at 19:55";
shapes = (
{
attr = {
strokeWidth = 56;
};
closed = 0;
nodes = (
(98,69,l),
(98,408,l),
(180,470,l),
(308,355,l),
(106,213,l)
);
},
{
attr = {
strokeWidth = 56;
};
closed = 0;
nodes = (
(347,128,l),
(228,30,l),
(55,103,l)
);
}
);
width = 378;
},
{
associatedMasterId = "4F3E9B02-E456-4626-B03D-CB5849416C61";
layerId = "EA6467B4-AA21-4E08-924A-A076A727E3AB";
name = "11 Feb 26 at 23:47";
shapes = (
{
attr = {
strokeWidth = 56;
};
closed = 0;
nodes = (
(98,69,l),
(98,387,l),
(224,468,l),
(308,355,l),
(106,227,l)
);
},
{
attr = {
strokeWidth = 56;
};
closed = 0;
nodes = (
(347,128,l),
(228,30,l),
(55,103,l)
);
}
);
width = 378;
},
{
layerId = "4F3E9B02-E456-4626-B03D-CB5849416C61";
name = Regular;
shapes = (
{
attr = {
strokeWidth = 56;
};
closed = 0;
nodes = (
(98,79,l),
(98,387,l),
(225,468,l),
(316,382,l),
(318,325,l),
(106,197,l)
);
},
{
attr = {
strokeWidth = 56;
};
closed = 0;
nodes = (
(347,128,l),
(198,30,l),
(58,113,l)
);
}
);
width = 378;
},
{
associatedMasterId = "4F3E9B02-E456-4626-B03D-CB5849416C61";
layerId = "83C69400-91B3-4926-B20C-AE4856FF552F";
name = "11 Feb 26 at 23:53";
shapes = (
{
attr = {
strokeWidth = 56;
};
closed = 0;
nodes = (
(98,69,l),
(98,387,l),
(224,468,l),
(318,335,l),
(106,197,l)
);
},
{
attr = {
strokeWidth = 56;
};
closed = 0;
nodes = (
(347,128,l),
(198,30,l),
(55,103,l)
);
},
{
attr = {
strokeWidth = 56;
};
closed = 0;
nodes = (
(92,394,l),
(52,420,l)
);
}
);
width = 378;
},
{
associatedMasterId = "4F3E9B02-E456-4626-B03D-CB5849416C61";
layerId = "6DDDA5FB-C80D-406E-96C9-E08D339D1C68";
name = "11 Feb 26 at 23:55";
shapes = (
{
attr = {
strokeWidth = 56;
};
closed = 0;
nodes = (
(98,69,l),
(98,397,l),
(194,468,l),
(318,335,l),
(106,197,l)
);
},
{
attr = {
strokeWidth = 56;
};
closed = 0;
nodes = (
(347,128,l),
(198,30,l),
(55,103,l)
);
},
{
attr = {
strokeWidth = 56;
};
closed = 0;
nodes = (
(92,404,l),
(52,430,l)
);
}
);
width = 378;
},
{
associatedMasterId = "4F3E9B02-E456-4626-B03D-CB5849416C61";
layerId = "6E1FBE95-7963-46A0-90D5-E5C81A737906";
name = "12 Feb 26 at 00:56";
shapes = (
{
attr = {
strokeWidth = 56;
};
closed = 0;
nodes = (
(98,79,l),
(98,407,l),
(194,468,l),
(287,368,l),
(318,335,l),
(106,197,l)
);
},
{
attr = {
strokeWidth = 56;
};
closed = 0;
nodes = (
(347,128,l),
(198,30,l),
(58,113,l)
);
}
);
visible = 1;
width = 378;
}
);
unicode = 101;
},
{
glyphname = z;
lastChange = "2026-02-11 20:00:40 +0000";
layers = (
{
layerId = "BB1E0B62-8800-4897-8DA4-2FB7C2EA9BE3";
shapes = (
{
attr = {
strokeWidth = 56;
};
closed = 0;
nodes = (
(412,76,l),
(356,28,l),
(98,28,l),
(355,464,l),
(355,464,o),
(226,455,o),
(108,480,c),
(41,411,l)
);
},
{
attr = {
strokeWidth = 56;
};
closed = 0;
nodes = (
(89,254,l),
(118,262,o),
(133,271,o),
(173,267,cs),
(213,263,o),
(250,242,o),
(275,239,cs),
(300,236,o),
(339,239,o),
(365,246,c)
);
}
);
width = 451;
},
{
layerId = "ABEE408E-F1F2-48F1-B0CF-1BE6048DE736";
shapes = (
{
attr = {
strokeWidth = 56;
};
closed = 0;
nodes = (
(412,76,l),
(356,28,l),
(98,28,l),
(355,464,l),
(355,464,o),
(226,455,o),
(108,480,c),
(41,411,l)
);
},
{
attr = {
strokeWidth = 56;
};
closed = 0;
nodes = (
(89,254,l),
(118,262,o),
(133,271,o),
(173,267,cs),
(213,263,o),
(250,242,o),
(275,239,cs),
(300,236,o),
(339,239,o),
(365,246,c)
);
}
);
width = 451;
},
{
layerId = "45694E59-AA00-4651-8C52-E54C12FC4B80";
shapes = (
{
attr = {
strokeWidth = 56;
};
closed = 0;
nodes = (
(412,76,l),
(356,28,l),
(98,28,l),
(355,464,l),
(355,464,o),
(226,455,o),
(108,480,c),
(41,411,l)
);
},
{
attr = {
strokeWidth = 56;
};
closed = 0;
nodes = (
(89,254,l),
(118,262,o),
(133,271,o),
(173,267,cs),
(213,263,o),
(250,242,o),
(275,239,cs),
(300,236,o),
(339,239,o),
(365,246,c)
);
}
);
width = 451;
},
{
associatedMasterId = "4F3E9B02-E456-4626-B03D-CB5849416C61";
layerId = "7E2C631C-C7E4-4A0A-BD8E-3B9083492635";
name = "12 Feb 26 at 00:18";
width = 600;
},
{
associatedMasterId = "4F3E9B02-E456-4626-B03D-CB5849416C61";
layerId = "92289D3D-4DD7-4CDD-8768-06E8D65D0647";
name = "12 Feb 26 at 01:21";
shapes = (
{
attr = {
strokeWidth = 56;
};
closed = 0;
nodes = (
(412,76,l),
(356,28,l),
(98,28,l),
(355,464,l),
(355,464,o),
(226,455,o),
(108,480,c),
(41,411,l)
);
},
{
attr = {
strokeWidth = 56;
};
closed = 0;
nodes = (
(89,254,l),
(118,262,o),
(133,271,o),
(173,267,cs),
(213,263,o),
(250,242,o),
(275,239,cs),
(300,236,o),
(339,239,o),
(365,246,c)
);
}
);
width = 451;
},
{
associatedMasterId = "4F3E9B02-E456-4626-B03D-CB5849416C61";
layerId = "31A08E47-662B-4BC6-8424-5954CF2F0131";
name = "12 Feb 26 at 01:25";
shapes = (
{
attr = {
strokeWidth = 56;
};
closed = 0;
nodes = (
(402,96,l),
(359,28,l),
(281,78,l),
(78,28,l),
(63,67,l),
(361,431,l),
(345,464,l),
(156,414,l),
(93,464,l),
(41,411,l)
);
}
);
width = 451;
},
{
layerId = "4F3E9B02-E456-4626-B03D-CB5849416C61";
name = Regular;
shapes = (
{
attr = {
strokeWidth = 56;
};
closed = 0;
nodes = (
(383,100,l),
(340,42,l),
(78,42,l),
(330,462,l),
(93,462,l),
(41,409,l)
);
},
{
attr = {
strokeWidth = 56;
};
closed = 0;
nodes = (
(70,252,l),
(350,254,l)
);
}
);
width = 420;
},
{
associatedMasterId = "4F3E9B02-E456-4626-B03D-CB5849416C61";
layerId = "2D51AF1A-A6AF-43EC-B7E4-6E2ED937C88D";
name = "12 Feb 26 at 01:26";
shapes = (
{
attr = {
strokeWidth = 56;
};
closed = 0;
nodes = (
(402,110,l),
(359,42,l),
(68,42,l),
(355,464,l),
(93,464,l),
(41,411,l)
);
},
{
attr = {
strokeWidth = 56;
};
closed = 0;
nodes = (
(59,244,l),
(385,246,l)
);
}
);
width = 420;
}
);
unicode = 122;
},
{
glyphname = x;
lastChange = "2026-02-11 19:58:21 +0000";
layers = (
{
layerId = "BB1E0B62-8800-4897-8DA4-2FB7C2EA9BE3";
shapes = (
{
attr = {
strokeWidth = 56;
};
closed = 0;
nodes = (
(36,435,l),
(78,461,l),
(314,41,l),
(365,77,l)
);
},
{
attr = {
strokeWidth = 56;
};
closed = 0;
nodes = (
(50,61,l),
(64,52,o),
(88,36,o),
(88,36,c),
(309,461,l),
(349,435,l)
);
}
);
width = 405;
},
{
layerId = "ABEE408E-F1F2-48F1-B0CF-1BE6048DE736";
shapes = (
{
attr = {
strokeWidth = 56;
};
closed = 0;
nodes = (
(36,435,l),
(78,461,l),
(314,41,l),
(365,77,l)
);
},
{
attr = {
strokeWidth = 56;
};
closed = 0;
nodes = (
(50,61,l),
(64,52,o),
(88,36,o),
(88,36,c),
(309,461,l),
(349,435,l)
);
}
);
width = 405;
},
{
layerId = "45694E59-AA00-4651-8C52-E54C12FC4B80";
shapes = (
{
attr = {
strokeWidth = 56;
};
closed = 0;
nodes = (
(36,435,l),
(78,461,l),
(314,41,l),
(365,77,l)
);
},
{
attr = {
strokeWidth = 56;
};
closed = 0;
nodes = (
(50,61,l),
(64,52,o),
(88,36,o),
(88,36,c),
(309,461,l),
(349,435,l)
);
}
);
width = 405;
},
{
associatedMasterId = "4F3E9B02-E456-4626-B03D-CB5849416C61";
layerId = "0B37F37F-1071-4FA0-814B-698DAE7F8A61";
name = "12 Feb 26 at 00:18";
width = 600;
},
{
layerId = "4F3E9B02-E456-4626-B03D-CB5849416C61";
name = Regular;
shapes = (
{
attr = {
strokeWidth = 56;
};
closed = 0;
nodes = (
(19,424,l),
(54,451,l),
(73,466,l),
(332,38,l),
(394,88,l)
);
},
{
attr = {
strokeWidth = 56;
};
closed = 0;
nodes = (
(366,418,l),
(328,466,l),
(155,327,l),
(250,170,l),
(90,32,l),
(22,88,l)
);
}
);
width = 420;
},
{
associatedMasterId = "4F3E9B02-E456-4626-B03D-CB5849416C61";
layerId = "EE094C3A-6499-4742-863E-F25514A5716D";
name = "12 Feb 26 at 01:04";
shapes = (
{
attr = {
strokeWidth = 56;
};
closed = 0;
nodes = (
(36,435,l),
(78,461,l),
(314,41,l),
(365,77,l)
);
},
{
attr = {
strokeWidth = 56;
};
closed = 0;
nodes = (
(50,61,l),
(64,52,o),
(88,36,o),
(88,36,cs),
(309,461,l),
(349,435,l)
);
}
);
width = 405;
},
{
associatedMasterId = "4F3E9B02-E456-4626-B03D-CB5849416C61";
layerId = "9972B7F5-5A4C-4BC1-A97D-2167A5A4D038";
name = "12 Feb 26 at 01:17";
shapes = (
{
attr = {
strokeWidth = 56;
};
closed = 0;
nodes = (
(19,424,l),
(54,466,l),
(89,439,l),
(315,48,l),
(348,29,l),
(407,77,l)
);
},
{
attr = {
strokeWidth = 56;
};
closed = 0;
nodes = (
(300,483,l),
(368,416,l),
(215,229,l),
(196,254,l),
(45,77,l),
(108,19,l)
);
}
);
width = 420;
}
);
unicode = 120;
},
{
glyphname = s;
lastChange = "2026-02-11 19:59:44 +0000";
layers = (
{
layerId = "BB1E0B62-8800-4897-8DA4-2FB7C2EA9BE3";
shapes = (
{
attr = {
strokeWidth = 56;
};
closed = 0;
nodes = (
(303,421,l),
(257,437,o),
(164,470,o),
(164,470,c),
(72,411,l),
(36,388,l)
);
},
{
attr = {
strokeWidth = 56;
};
closed = 0;
nodes = (
(75,411,l),
(75,292,l),
(270,254,l),
(271,103,l),
(176,35,l),
(140,66,o),
(119,79,o),
(49,112,c)
);
},
{
attr = {
strokeWidth = 56;
};
closed = 0;
nodes = (
(274,105,l),
(305,130,l)
);
}
);
width = 343;
},
{
layerId = "ABEE408E-F1F2-48F1-B0CF-1BE6048DE736";
shapes = (
{
attr = {
strokeWidth = 56;
};
closed = 0;
nodes = (
(303,421,l),
(257,437,o),
(164,470,o),
(164,470,c),
(72,411,l),
(36,388,l)
);
},
{
attr = {
strokeWidth = 56;
};
closed = 0;
nodes = (
(75,411,l),
(75,292,l),
(270,254,l),
(271,103,l),
(176,35,l),
(140,66,o),
(119,79,o),
(49,112,c)
);
},
{
attr = {
strokeWidth = 56;
};
closed = 0;
nodes = (
(274,105,l),
(305,130,l)
);
}
);
width = 343;
},
{
layerId = "45694E59-AA00-4651-8C52-E54C12FC4B80";
shapes = (
{
attr = {
strokeWidth = 56;
};
closed = 0;
nodes = (
(303,421,l),
(257,437,o),
(164,470,o),
(164,470,c),
(72,411,l),
(36,388,l)
);
},
{
attr = {
strokeWidth = 56;
};
closed = 0;
nodes = (
(75,411,l),
(75,292,l),
(270,254,l),
(271,103,l),
(176,35,l),
(140,66,o),
(119,79,o),
(49,112,c)
);
},
{
attr = {
strokeWidth = 56;
};
closed = 0;
nodes = (
(274,105,l),
(305,130,l)
);
}
);
width = 343;
},
{
associatedMasterId = "4F3E9B02-E456-4626-B03D-CB5849416C61";
layerId = "8A0075D9-ECDD-4DD7-89C5-E45CB013AEDC";
name = "11 Feb 26 at 23:03";
width = 600;
},
{
layerId = "4F3E9B02-E456-4626-B03D-CB5849416C61";
name = Regular;
shapes = (
{
attr = {
strokeWidth = 56;
};
closed = 0;
nodes = (
(328,462,l),
(284,411,l),
(185,470,l),
(84,401,l),
(84,270,l),
(118,230,l),
(274,270,l),
(307,230,l),
(308,103,l),
(234,35,l),
(84,92,l),
(50,43,l)
);
},
{
attr = {
strokeWidth = 56;
};
closed = 0;
nodes = (
(298,83,l)
);
}
);
width = 392;
},
{
associatedMasterId = "4F3E9B02-E456-4626-B03D-CB5849416C61";
layerId = "69282998-B777-4ACD-BA2F-FF8638DC979D";
name = "11 Feb 26 at 23:56";
shapes = (
{
attr = {
strokeWidth = 56;
};
closed = 0;
nodes = (
(303,421,l),
(257,437,o),
(164,470,o),
(164,470,c),
(72,411,l),
(36,388,l)
);
},
{
attr = {
strokeWidth = 56;
};
closed = 0;
nodes = (
(75,411,l),
(75,292,l),
(270,254,l),
(271,103,l),
(176,35,l),
(140,66,o),
(119,79,o),
(49,112,cs)
);
},
{
attr = {
strokeWidth = 56;
};
closed = 0;
nodes = (
(274,105,l),
(305,130,l)
);
}
);
width = 343;
},
{
associatedMasterId = "4F3E9B02-E456-4626-B03D-CB5849416C61";
layerId = "F1C4E603-B6A1-40AA-82E3-B4BAF253030F";
name = "12 Feb 26 at 00:03";
shapes = (
{
attr = {
strokeWidth = 56;
};
closed = 0;
nodes = (
(321,462,l),
(267,411,l),
(168,470,l),
(89,401,l),
(89,250,l),
(123,210,l),
(260,290,l),
(294,250,l),
(295,93,l),
(230,35,l),
(83,92,l),
(39,43,l)
);
},
{
attr = {
strokeWidth = 56;
};
closed = 0;
nodes = (
(285,83,l)
);
}
);
width = 378;
},
{
associatedMasterId = "4F3E9B02-E456-4626-B03D-CB5849416C61";
layerId = "CDD4A4CF-07E4-4166-8E51-38AD33C33A09";
name = "12 Feb 26 at 01:28";
shapes = (
{
attr = {
strokeWidth = 56;
};
closed = 0;
nodes = (
(314,462,l),
(270,411,l),
(171,470,l),
(84,401,l),
(84,270,l),
(118,230,l),
(260,270,l),
(293,230,l),
(294,103,l),
(220,35,l),
(84,92,l),
(50,43,l)
);
},
{
attr = {
strokeWidth = 56;
};
closed = 0;
nodes = (
(284,83,l)
);
}
);
width = 378;
}
);
unicode = 115;
},
{
color = 3;
glyphname = k;
lastChange = "2026-02-11 19:31:19 +0000";
layers = (
{
layerId = "BB1E0B62-8800-4897-8DA4-2FB7C2EA9BE3";
shapes = (
{
attr = {
strokeWidth = 56;
};
closed = 0;
nodes = (
(9,629,l),
(50,665,l),
(98,618,l),
(98,346,l),
(98,64,l),
(146,33,l),
(146,33,o),
(180,73,o),
(180,73,c)
);
},
{
attr = {
strokeWidth = 56;
};
closed = 0;
nodes = (
(98,364,l),
(235,459,l),
(317,379,l),
(113,249,l)
);
},
{
attr = {
strokeWidth = 56;
};
closed = 0;
nodes = (
(72,80,l),
(107,58,l)
);
},
{
attr = {
strokeWidth = 56;
};
closed = 0;
nodes = (
(410,77,l),
(410,77,o),
(360,37,o),
(360,37,c),
(188,298,l)
);
}
);
width = 406;
},
{
layerId = "ABEE408E-F1F2-48F1-B0CF-1BE6048DE736";
shapes = (
{
closed = 1;
nodes = (
(52,591,l),
(14,631,l),
(85,699,l),
(167,619,l),
(167,70,l),
(111,80,l),
(111,595,l),
(85,621,l)
);
},
{
closed = 1;
nodes = (
(95,76,l),
(130,124,l),
(190,73,l),
(221,105,l),
(261,67,l),
(196,-1,l)
);
},
{
closed = 1;
nodes = (
(309,394,l),
(266,443,l),
(141,373,l),
(126,421,l),
(272,505,l),
(390,388,l),
(139,234,l),
(141,297,l)
);
},
{
attr = {
strokeWidth = 58;
};
closed = 0;
nodes = (
(202,297,l),
(266,209,o),
(395,37,o),
(395,37,c),
(450,90,l)
);
}
);
width = 463;
},
{
layerId = "45694E59-AA00-4651-8C52-E54C12FC4B80";
shapes = (
{
attr = {
strokeWidth = 56;
};
closed = 0;
nodes = (
(9,629,l),
(50,665,l),
(98,618,l),
(98,346,l),
(98,64,l),
(146,33,l),
(146,33,o),
(180,73,o),
(180,73,c)
);
},
{
attr = {
strokeWidth = 56;
};
closed = 0;
nodes = (
(98,364,l),
(235,459,l),
(317,379,l),
(113,249,l)
);
},
{
attr = {
strokeWidth = 56;
};
closed = 0;
nodes = (
(72,80,l),
(107,58,l)
);
},
{
attr = {
strokeWidth = 56;
};
closed = 0;
nodes = (
(410,77,l),
(410,77,o),
(360,37,o),
(360,37,c),
(188,298,l)
);
}
);
width = 406;
},
{
associatedMasterId = "4F3E9B02-E456-4626-B03D-CB5849416C61";
layerId = "E8B5D64E-6D9D-4A83-9EC6-E115FC5FA547";
name = "12 Feb 26 at 00:42";
shapes = (
{
closed = 1;
nodes = (
(52,591,l),
(14,631,l),
(85,699,l),
(167,619,l),
(167,70,l),
(111,80,l),
(111,595,l),
(85,621,l)
);
},
{
closed = 1;
nodes = (
(95,76,l),
(130,124,l),
(190,73,l),
(221,105,l),
(261,67,l),
(196,-1,l)
);
},
{
closed = 1;
nodes = (
(309,394,l),
(266,443,l),
(141,373,l),
(126,421,l),
(272,505,l),
(390,388,l),
(139,234,l),
(141,297,l)
);
},
{
attr = {
strokeWidth = 58;
};
closed = 0;
nodes = (
(202,297,l),
(266,209,o),
(395,37,o),
(395,37,c),
(450,90,l)
);
}
);
width = 463;
},
{
associatedMasterId = "4F3E9B02-E456-4626-B03D-CB5849416C61";
layerId = "ABCFC3D2-5E64-426D-8195-ADFB1EF15623";
name = "12 Feb 26 at 00:42";
shapes = (
{
attr = {
strokeWidth = 56;
};
closed = 0;
nodes = (
(9,629,l),
(50,665,l),
(98,618,l),
(98,346,l),
(98,64,l),
(146,33,l),
(146,33,o),
(180,73,o),
(180,73,c)
);
},
{
attr = {
strokeWidth = 56;
};
closed = 0;
nodes = (
(98,364,l),
(235,459,l),
(317,379,l),
(113,249,l)
);
},
{
attr = {
strokeWidth = 56;
};
closed = 0;
nodes = (
(72,80,l),
(107,58,l)
);
},
{
attr = {
strokeWidth = 56;
};
closed = 0;
nodes = (
(410,77,l),
(410,77,o),
(360,37,o),
(360,37,c),
(188,298,l)
);
}
);
width = 406;
},
{
associatedMasterId = "4F3E9B02-E456-4626-B03D-CB5849416C61";
layerId = "15AAC983-9A46-4BF2-82D7-A13B83358365";
name = "12 Feb 26 at 00:47";
shapes = (
{
attr = {
strokeWidth = 56;
};
closed = 0;
nodes = (
(23,629,l),
(64,665,l),
(112,618,l),
(112,346,l),
(112,64,l),
(160,33,l),
(160,33,o),
(194,73,o),
(194,73,c)
);
},
{
attr = {
strokeWidth = 56;
};
closed = 0;
nodes = (
(86,80,l),
(121,58,l)
);
},
{
attr = {
strokeWidth = 56;
};
closed = 0;
nodes = (
(123,614,l),
(154,639,l)
);
},
{
attr = {
strokeWidth = 56;
};
closed = 0;
nodes = (
(112,407,l),
(208,468,l),
(332,335,l),
(120,197,l)
);
},
{
attr = {
strokeWidth = 56;
};
closed = 0;
nodes = (
(410,77,l),
(410,77,o),
(360,37,o),
(360,37,c),
(211,263,l)
);
}
);
width = 420;
},
{
associatedMasterId = "4F3E9B02-E456-4626-B03D-CB5849416C61";
layerId = "FF1C9238-6F2C-4855-9540-0E95909975A0";
name = "12 Feb 26 at 00:48";
shapes = (
{
attr = {
strokeWidth = 56;
};
closed = 0;
nodes = (
(23,629,l),
(64,665,l),
(112,618,l),
(112,346,l),
(112,64,l),
(160,33,l),
(160,33,o),
(194,73,o),
(194,73,c)
);
},
{
attr = {
strokeWidth = 56;
};
closed = 0;
nodes = (
(86,80,l),
(121,58,l)
);
},
{
attr = {
strokeWidth = 56;
};
closed = 0;
nodes = (
(123,614,l),
(154,639,l)
);
},
{
attr = {
strokeWidth = 56;
};
closed = 0;
nodes = (
(367,399,l),
(287,470,l),
(106,296,l)
);
},
{
attr = {
strokeWidth = 56;
};
closed = 0;
nodes = (
(419,77,l),
(375,37,l),
(136,307,l)
);
}
);
width = 420;
},
{
layerId = "4F3E9B02-E456-4626-B03D-CB5849416C61";
name = Regular;
shapes = (
{
attr = {
strokeWidth = 56;
};
closed = 0;
nodes = (
(23,619,l),
(64,655,l),
(112,618,l),
(112,346,l),
(112,64,l),
(160,33,l),
(160,33,o),
(194,73,o),
(194,73,c)
);
},
{
attr = {
strokeWidth = 56;
};
closed = 0;
nodes = (
(86,80,l),
(121,58,l)
);
},
{
attr = {
strokeWidth = 56;
};
closed = 0;
nodes = (
(123,614,l),
(154,639,l)
);
},
{
attr = {
strokeWidth = 56;
};
closed = 0;
nodes = (
(120,207,l),
(332,329,l),
(332,403,l),
(251,465,l),
(110,374,l)
);
},
{
attr = {
strokeWidth = 56;
};
closed = 0;
nodes = (
(180,250,l),
(370,33,l),
(414,83,l)
);
}
);
width = 420;
},
{
associatedMasterId = "4F3E9B02-E456-4626-B03D-CB5849416C61";
layerId = "765A0E32-BCF0-454A-AC2E-F6D65D82D3EC";
name = "12 Feb 26 at 00:50";
shapes = (
{
attr = {
strokeWidth = 56;
};
closed = 0;
nodes = (
(23,629,l),
(64,665,l),
(112,618,l),
(112,346,l),
(112,64,l),
(160,33,l),
(160,33,o),
(194,73,o),
(194,73,c)
);
},
{
attr = {
strokeWidth = 56;
};
closed = 0;
nodes = (
(86,80,l),
(121,58,l)
);
},
{
attr = {
strokeWidth = 56;
};
closed = 0;
nodes = (
(123,614,l),
(154,639,l)
);
},
{
attr = {
strokeWidth = 56;
};
closed = 0;
nodes = (
(281,483,l),
(336,414,l),
(120,257,l)
);
},
{
attr = {
strokeWidth = 56;
};
closed = 0;
nodes = (
(419,77,l),
(385,37,l),
(160,260,l)
);
}
);
width = 420;
},
{
associatedMasterId = "4F3E9B02-E456-4626-B03D-CB5849416C61";
layerId = "899DF4B0-05BA-4CDC-BCCF-38B09444C336";
name = "12 Feb 26 at 00:53";
shapes = (
{
attr = {
strokeWidth = 56;
};
closed = 0;
nodes = (
(23,629,l),
(64,665,l),
(112,618,l),
(112,346,l),
(112,64,l),
(160,33,l),
(160,33,o),
(194,73,o),
(194,73,c)
);
},
{
attr = {
strokeWidth = 56;
};
closed = 0;
nodes = (
(86,80,l),
(121,58,l)
);
},
{
attr = {
strokeWidth = 56;
};
closed = 0;
nodes = (
(123,614,l),
(154,639,l)
);
},
{
attr = {
strokeWidth = 56;
};
closed = 0;
nodes = (
(120,217,l),
(346,354,l),
(261,465,l),
(108,364,l)
);
},
{
attr = {
strokeWidth = 56;
};
closed = 0;
nodes = (
(180,250,l),
(342,209,l),
(342,53,l),
(375,84,l)
);
}
);
width = 420;
},
{
associatedMasterId = "4F3E9B02-E456-4626-B03D-CB5849416C61";
layerId = "A2AF2DEF-6876-4A98-9560-4916248EBA46";
name = "12 Feb 26 at 00:54";
shapes = (
{
attr = {
strokeWidth = 56;
};
closed = 0;
nodes = (
(23,629,l),
(64,665,l),
(112,618,l),
(112,346,l),
(112,64,l),
(160,33,l),
(160,33,o),
(194,73,o),
(194,73,c)
);
},
{
attr = {
strokeWidth = 56;
};
closed = 0;
nodes = (
(86,80,l),
(121,58,l)
);
},
{
attr = {
strokeWidth = 56;
};
closed = 0;
nodes = (
(123,614,l),
(154,639,l)
);
},
{
attr = {
strokeWidth = 56;
};
closed = 0;
nodes = (
(120,207,l),
(346,344,l),
(241,465,l),
(110,374,l)
);
},
{
attr = {
strokeWidth = 56;
};
closed = 0;
nodes = (
(180,250,l),
(332,209,l),
(332,53,l)
);
},
{
attr = {
strokeWidth = 56;
};
closed = 0;
nodes = (
(322,64,l),
(370,33,l),
(370,33,o),
(404,73,o),
(404,73,c)
);
},
{
attr = {
strokeWidth = 56;
};
closed = 0;
nodes = (
(296,80,l),
(331,58,l)
);
}
);
width = 420;
}
);
unicode = 107;
},
